<?xml version="1.0" encoding="UTF-8"?>
<svg width="100px" height="200px" viewBox="0 0 100 200" version="1.1" xmlns="http://www.w3.org/2000/svg" xmlns:xlink="http://www.w3.org/1999/xlink">
    <!-- Generator: Sketch 46.2 (44496) - http://www.bohemiancoding.com/sketch -->
    <title>Artboard Copy 2</title>
    <desc>Created with Sketch.</desc>
    <defs></defs>
    <g id="Upated-Design" stroke="none" stroke-width="1" fill="none" fill-rule="evenodd">
        <g id="Artboard-Copy-2">
            <g id="Group-5" transform="translate(-87.000000, 0.000000)">
                <path d="M151.477616,161.251853 L151.241133,167.987478 C134.499736,165.674014 80.5026831,168.71569 59.7899954,117.706924 C54.9067482,106.625078 69.8554918,102.960963 73.9953112,112.863024 C88.7823218,158.714636 122.375203,157.91184 151.477616,161.251853 Z" id="Fill-20" fill="#12E1B7" transform="translate(105.149230, 137.543110) rotate(-48.000000) translate(-105.149230, -137.543110) "></path>
                <path d="M113.472023,33.8594252 L119.800405,32.1250108 C143.232856,30.7179976 160.666555,33.9622454 164.549943,50.9384012 L164.556753,50.9167548 C164.598979,51.125101 164.635756,51.336153 164.676619,51.547205 C164.785588,52.0761878 164.882298,52.6200526 164.965387,53.1760934 C165.913419,58.925907 166.511387,65.2168797 171.869944,67.4883943 L163.65912,67.4234552 C160.72104,75.3798444 154.252359,81.6897576 146.77299,86.7671813 C132.657401,96.3497532 137.605962,100.637085 139.205084,104.633544 L124.754414,103.628341 L124.514682,100.151395 L124.507872,100.160865 C123.689241,86.7022423 119.804492,82.0090414 112.822294,74.0526522 C104.313167,64.3550841 98.8047771,40.2559238 113.472023,33.8594252" id="Fill-21" fill="#FF5E54" transform="translate(138.116406, 68.232669) rotate(-330.000000) translate(-138.116406, -68.232669) "></path>
                <path d="M134.112324,83.0051418 C133.393784,83.0051418 132.685011,82.887129 132.019489,82.6423153 C130.335455,82.0233759 129.265319,80.7001262 129.157887,79.1031873 L130.420564,79.0341372 C130.498696,80.2017105 131.256302,81.1332582 132.498051,81.5902439 C134.126276,82.1878405 136.12005,81.811204 137.576663,80.6235434 L138.423564,81.4672093 C137.190187,82.4715734 135.634513,83.0051418 134.112324,83.0051418" id="Fill-27" fill="#222B24" transform="translate(133.790725, 81.019640) rotate(-330.000000) translate(-133.790725, -81.019640) "></path>
                <path d="M119.859657,224.909521 L124.660216,233.224333 C65.7734267,233.224333 73.7595291,240.53312 69.2691325,97.3118581 L85.1896297,95.6255284 C106.035956,136.51563 85.7489711,224.909521 119.859657,224.909521 Z" id="Fill-28" fill="#12E1B7" transform="translate(96.964674, 164.456274) rotate(-330.000000) translate(-96.964674, -164.456274) "></path>
                <polygon id="Fill-29" fill="#011627" transform="translate(106.372128, 117.920697) rotate(-330.000000) translate(-106.372128, -117.920697) " points="93.7815339 89.7059475 105.941307 92.9831945 108.339387 88.7999975 111.541309 92.5438633 110.080146 97.2769066 120.270644 147.041397 104.420999 99.4408174 92.4736122 95.5100311"></polygon>
                <path d="M108.099036,83.0626712 C86.1064328,61.2918219 90.8567149,6.40736206 138.713484,15.1151565 C165.110621,19.9093508 165.209016,38.2164391 173.595806,34.8535511 C169.137975,50.2435009 143.657822,50.6006459 134.80639,43.6499502 C132.481813,45.6483263 130.844633,48.4168815 129.658429,51.6816229 C128.958733,51.4894189 128.226238,51.3776407 127.460946,51.4239878 C123.728776,51.6489073 120.884893,54.8495807 121.110381,58.57234 C121.309904,61.8561655 123.829904,64.4420587 126.981271,64.8550928 C129.39331,87.8009764 125.811466,108.271382 102.185782,101.589226 C109.214177,101.578321 122.702464,97.086746 108.099036,83.0626712" id="Fill-30" fill="#011627" transform="translate(134.547594, 58.530013) rotate(-330.000000) translate(-134.547594, -58.530013) "></path>
                <path d="M78.2132407,75.8450094 C61.3613577,137.580115 56.5796788,161.360841 28.0763147,195.521277 L31.6992979,200.269818 C68.0870094,164.239568 75.1888253,136.924255 84.5448809,96.3491468 C85.7529996,89.7226441 84.8043519,78.7101571 78.2132407,75.8450094" id="Fill-32" fill="#12E1B7" transform="translate(56.535181, 138.057414) rotate(-330.000000) translate(-56.535181, -138.057414) "></path>
                <circle id="Oval-2" fill="#093448" transform="translate(154.893786, 67.716282) rotate(-330.000000) translate(-154.893786, -67.716282) " cx="154.893786" cy="67.7162821" r="2.64733636"></circle>
                <g id="Group-4" transform="translate(146.000000, 112.000000)" fill="#FF5E54">
                    <path d="M13.4346594,12.5840048 C9.19823765,13.7090273 8.82402878,12.6098957 7.70266001,8.57954084 C6.58129124,4.54856954 6.20708236,1.61734634 11.2541852,0.334512378 C16.861658,-0.947705132 18.1704457,1.61734634 17.9830268,5.28152945 C17.7962368,8.94571257 17.8578712,12.0082398 13.4346594,12.5840048" id="Fill-16"></path>
                    <path d="M4.0685196,6.45365628 C7.54606097,3.49210826 9.47788395,5.34315362 8.89807706,9.4152043 C7.93216557,11.4518525 7.15930637,13.3028978 6.96625407,14.7833604 C5.42118569,16.2644458 0.977732831,9.78578707 4.0685196,6.45365628" id="Fill-17" transform="translate(6.000000, 10.000000) rotate(-41.000000) translate(-6.000000, -10.000000) "></path>
                </g>
            </g>
        </g>
    </g>
</svg>