<?xml version="1.0" encoding="UTF-8"?>
<svg width="149px" height="232px" viewBox="0 0 149 232" version="1.1" xmlns="http://www.w3.org/2000/svg" xmlns:xlink="http://www.w3.org/1999/xlink">
    <!-- Generator: Sketch 46.2 (44496) - http://www.bohemiancoding.com/sketch -->
    <title>Couple Chatting</title>
    <desc>Created with Sketch.</desc>
    <defs></defs>
    <g id="Upated-Design" stroke="none" stroke-width="1" fill="none" fill-rule="evenodd">
        <g id="Couple-Chatting">
            <g id="Group-2">
                <path d="M23.6970864,171.151021 C23.6970864,171.151021 28.3029024,172.945412 29.119531,173.127678 C30.3997345,173.585203 30.308401,175.099872 28.6843539,174.862554 C27.6474505,174.679544 25.9420475,174.593247 25.9420475,174.593247 C27.0672144,176.116099 27.6604981,177.570509 27.9122408,179.245125 C28.2798772,182.036401 24.1982692,183.013199 23.2243014,180.730036 C22.5957123,179.085921 21.1604722,175.890684 20,174.087365 L20.8212336,171 L23.6970864,171.151021" id="Fill-85" fill="#E36931"></path>
                <path d="M26.596419,101 C-3.11241205,120.499273 -11.5432966,140.486213 20.0727086,175 L23.6708803,172.040594 C16.9784467,162.478008 -6.34150183,132.570711 24.2079321,114.104669 C26.5339011,111.90831 27.6614839,105.330368 26.596419,101" id="Fill-86" fill="#093448"></path>
                <path d="M53,180 C52.9241193,137.827618 51.4956467,121.707558 46.7217931,100 L26.2509488,100 C21.4093182,122.012882 20,136.398584 20,180 L53,180" id="Fill-87" fill="#04243D"></path>
                <polyline id="Fill-88" fill="#FFFFFE" points="36.9996298 167 43 160.032181 38.7551675 107.344015 41.7457272 101 32.2535324 101 35.2440921 107.344015 31 160.032181 36.9996298 167"></polyline>
                <polyline id="Fill-89" fill="#FF5E54" points="26.6702437 100 23 62.6952822 50 59 47.3333794 100 26.6702437 100"></polyline>
                <path d="M20,80.4996384 C20,78.5672074 21.566646,77 23.5,77 C25.433354,77 27,78.5672074 27,80.4996384 C27,82.4327926 25.433354,84 23.5,84 C21.566646,84 20,82.4327926 20,80.4996384" id="Fill-90" fill="#FF5E54"></path>
                <path d="M51,80.4996384 C51,78.5672074 49.4327926,77 47.5003616,77 C45.5672074,77 44,78.5672074 44,80.4996384 C44,82.4327926 45.5672074,84 47.5003616,84 C49.4327926,84 51,82.4327926 51,80.4996384" id="Fill-91" fill="#FF5E54"></path>
                <path d="M30.0074678,77.9784005 C29.8313419,77.9965401 29.6576287,78.0035619 29.4879366,77.9982956 C27.8071002,77.9538244 26.0434283,76.8601838 26,75.1100077 L26.7624081,75.1012305 C26.7961857,76.5225537 28.1891085,77.4096372 29.5160846,77.4453312 C30.6781939,77.4804401 32.0075827,76.8502363 32.2416131,75 L33,75.0509078 C32.7498851,77.0257805 31.3296186,77.8408909 30.0074678,77.9784005" id="Fill-92" fill="#212B24"></path>
                <path d="M42.007124,77.9784005 C41.8309778,77.9965401 41.6572446,78.0035619 41.487533,77.9982956 C39.8065035,77.9538244 38.042629,76.8601838 38,75.1100077 L38.7616914,75.1012305 C38.7954728,76.5225537 40.1885557,77.4096372 41.5156842,77.4453312 C42.6779272,77.4804401 44.0074687,76.8502363 44.2415259,75 L45,75.0509078 C44.7498564,77.0257805 43.3294266,77.8408909 42.007124,77.9784005" id="Fill-93" fill="#212B24"></path>
                <path d="M34,95 L34,94.2946429 C37.318247,94.2946429 41.5990043,92.4761905 43.3610923,89 L44,89.3154762 C42.1081693,93.046875 37.5369993,95 34,95" id="Fill-94" fill="#212B24"></path>
                <polyline id="Fill-95" fill="#212B24" points="38 87 32 87 35.3556745 75 36.2731625 75.1928506 33.1996621 86.1809349 38 86.1809349 38 87"></polyline>
                <path d="M49.8839391,66.2637578 C51.7471966,63.9128037 53,59.6775422 53,55 L19,60.8559727 L24.5964484,87 L23.773114,71.072729 C25.7847201,69.2519209 26.3336097,67.5226701 26.424844,64.0641685 C28.7108949,68.6147119 36.913827,70.9435151 46.5401632,68.523893 L47.0601248,85.2707492 L49.8839391,66.2637578" id="Fill-96" fill="#04243D"></path>
                <polyline id="Fill-97" fill="#04243D" points="23.1823163 177.542303 30.8896638 267.2747 23 274 37.6458281 274 38 177 23.1823163 177.542303"></polyline>
                <polyline id="Fill-98" fill="#04243D" points="50.8435707 175 68.7504362 267.334351 78 274 62.499955 274 36 175.987725 50.8435707 175"></polyline>
                <path d="M59.7962816,129.17354 C58.1030854,127.169651 56.8385285,124.896784 55.8203323,125.003628 C54.8021361,125.110473 55.6394778,126.965676 56.5950158,128.511554 C55.136788,128.377065 53.0227848,127.738989 53.0227848,129.832537 C52.971519,129.912483 53.0227848,133.563117 53.0227848,133.563117 C52.9971519,135.119456 54.7871835,135.173252 56.065981,134.824327 L59.891693,133.885144 L62,133.133499 L61.8212816,130.368999 L59.7962816,129.17354" id="Fill-102" fill="#FF5E54"></path>
                <path d="M46.4691736,100 C55.48468,103.165548 88,112.950783 88,124.366145 C88,132.904549 67.1544373,133 59.5778928,133 L59.5778928,128.299776 C68.8811916,128.395227 79.8471252,126.668904 79.8471252,123.310962 C79.8471252,119.953766 68.4331004,115.732289 48.6753333,110.744221 C46.3729942,108.058166 45.318004,102.39821 46.4691736,100" id="Fill-103" fill="#093448"></path>
                <path d="M57.1398221,0 L88.8601779,0 C102.744794,0 114,11.497654 114,25.681359 C114,37.6401247 105.98712,47.6595089 95.1552749,50.5180999 L98.3666226,66 L83.3291958,51.3627179 L57.1398221,51.3627179 C43.2552057,51.3627179 32,39.8650639 32,25.681359 C32,11.497654 43.2552057,0 57.1398221,0" id="Fill-109" fill="#F7F7F7"></path>
                <path d="M117,115 C110.240981,131.74887 99.3358486,141.272342 77,144.414013 L77.5338439,147 C89.6943725,146.426414 108.438976,142.092816 116.65837,123.808913 L117,115" id="Fill-118" fill="#12E1B7"></path>
                <path d="M135.532176,99.2430745 C130.244451,102.351689 126.315013,105.535997 125.073665,113.772722 L124.227359,115 L116.247047,114.051983 C117.340723,110.520068 121.398344,109.161244 114.669126,102.013636 C111.103997,98.226712 108.271983,93.8805314 107.651309,89.0654866 L103,88.0550033 C106.326754,87.4700253 107.488644,84.0343821 108.777218,80.9463451 C111.139228,74.9444417 119.657008,68.3105269 132.870323,72.1231723 C145.261319,75.6991809 148.891664,91.2936942 135.532176,99.2430745" id="Fill-119" fill="#FF5E54"></path>
                <path d="M118.558807,92 C118.760347,92 118.961888,91.9746577 119.159854,91.9257209 C120.436991,91.6076318 121.445407,90.3011943 122,88.2484707 L121.350354,87.9863094 C120.87652,89.7436644 120.051063,90.852607 119.02335,91.1077775 C118.117848,91.3332362 117.124441,90.8762016 116.436202,89.9184387 C115.701509,88.8942616 115.489963,87.5659773 115.854451,86.2735217 L115.207664,86 C114.768135,87.5607341 115.035426,89.2298281 115.923061,90.4681037 C116.624163,91.4477134 117.594701,92 118.558807,92" id="Fill-120" fill="#222B24"></path>
                <path d="M118.171275,102 C118.351217,102 118.53116,101.988291 118.711927,101.962678 C119.832026,101.80022 120.687165,101.139407 121,100.19539 L120.243087,100 C120.01527,100.689352 119.40941,101.15258 118.583987,101.271862 C117.504333,101.421881 116.347916,100.954263 115.645481,100.064398 L115,100.464691 C115.759389,101.42993 116.961205,102 118.171275,102" id="Fill-121" fill="#222B24"></path>
                <path d="M73,134.842129 L73.638647,134.207351 L73.6446719,134.215585 C73.7742088,134.087581 73.948933,134 74.1695976,134 L101.794092,134 C102.306967,134 102.817584,134.413205 102.934318,134.922225 L106.977827,152.535819 C107.047114,152.839734 106.948455,153.095741 106.759421,153.264166 L106.768459,153.276892 L106.04019,154 L105.607899,153.458043 L78.6363608,153.458043 C78.1242382,153.458043 77.6136219,153.045587 77.4968881,152.535819 L73.6145471,135.622876 L73.341164,135.668538 L73,134.842129" id="Fill-122" fill="#CBCCCB"></path>
                <path d="M76.9981937,153.099484 C77.1129389,153.597253 77.6148566,154 78.1182548,154 L105.272148,154 C105.776287,154 106.091651,153.597253 105.976165,153.099484 L102.002281,135.900516 C101.886795,135.403478 101.385618,135 100.881479,135 L73.7275857,135 C73.2241875,135 72.9088233,135.403478 73.0235685,135.900516 L76.9981937,153.099484" id="Fill-123" fill="#F7F7F7"></path>
                <polyline id="Fill-124" fill="#FF5E54" points="129.753346 191.861376 132 274 123.975626 274 128.535075 266.842763 121 191.520697 125.923579 183 129.753346 191.861376"></polyline>
                <polyline id="Fill-126" fill="#FF5E54" points="120 191.861376 118.079926 274 110 274 114.590704 266.842763 111.185275 191.520697 116.143379 183 120 191.861376"></polyline>
                <path d="M115.95501,115.191675 C104.97843,136.596647 107.920183,179.674339 107,215 L134,215 C130.366991,160.95804 129.540019,151.096091 125.69225,115 L115.95501,115.191675" id="Fill-128" fill="#12E1B7"></path>
                <path d="M108.998414,147.450015 C107.546001,146.112721 107.042578,144.066195 105.909501,144 C105.216731,144.396381 105.216731,145.980331 106.286692,147.102492 C104.587828,146.772306 101,145.650144 101,147.234882 C101.126231,150.007188 101.81825,152.185315 104.902655,151.987518 C107.986308,151.788934 108.520538,151.562768 108.520538,151.562768 L110,149.874798 L108.998414,147.450015" id="Fill-129" fill="#FF5E54"></path>
                <path d="M108,153.235795 C108.079873,151.808881 108.169911,150.398311 108.267211,149 C115.974206,151.326705 123.385671,151.387181 128.615159,149.553277 C128.745133,151.185321 128.873656,152.826354 129,154.48455 C123.870717,155.40804 116.983507,155.148155 108,153.235795" id="Fill-130" fill="#0E9F82"></path>
                <path d="M125.256981,115.001592 C145.1318,126.272636 155.909779,158.936128 107,149.217207 C107.174444,148.689456 107.468128,145.348762 107.468128,145.348762 C129.580538,151.670656 149.848408,141.492917 124.802103,122.514633 C122.49385,120.108622 121.595869,114.895597 125.256981,115.001592" id="Fill-131" fill="#12E1B7"></path>
                <polyline id="Fill-132" fill="#FFFFFE" points="128 115.300418 126.641913 112 119.253356 114.853864 117.388131 112.803192 116.223951 115.091875 116.827296 116.619678 114 144 123.241104 117.22944 128 115.300418"></polyline>
                <path d="M76.9297766,145.479191 C78.7032052,145.417192 79.1288281,145.974417 79.3407638,147.152396 C79.5535752,148.32961 81.1851295,150.994798 78.3485195,150.994798 C76.717841,151.118796 75.5828466,149.011598 75.0153495,146.222413 C74.9444123,145.231195 75.0862866,143.309995 76.1503438,143 L76.9297766,145.479191" id="Fill-133" fill="#FF5E54"></path>
                <path d="M147.920027,81.5604683 C147.736246,73.7231402 140.899886,66.7832445 131.977381,66.1127661 C120.626989,65.2605763 115.137852,69.3183052 110.977712,75.5825309 C109.261408,78.1665425 108.581721,79.8078794 108,81.0702181 C118.375288,87.3470523 129.189525,81.6168359 129.399887,81.6005189 C130.087927,83.517019 130.712176,85.2688661 130.970381,86.9776958 C131.202766,86.9628622 131.438188,86.968054 131.678167,86.9984629 C133.626856,87.2476672 135.000659,88.9928392 134.746251,90.895989 C134.503234,92.7042038 132.876542,93.9873095 131.044805,93.900533 C130.61421,97.2210324 129.385458,100.151408 128.528065,103.104035 C128.090635,104.611128 127.9509,105.461092 127.91141,105.572344 C123.867463,118.909968 138.879051,124.482207 145.556691,123.967481 C130.727365,119.644231 149.358381,107.824084 147.920027,81.5604683" id="Fill-134" fill="#04243D"></path>
            </g>
        </g>
    </g>
</svg>