<?xml version="1.0" encoding="UTF-8"?>
<svg width="997px" height="781px" viewBox="0 0 997 781" version="1.1" xmlns="http://www.w3.org/2000/svg" xmlns:xlink="http://www.w3.org/1999/xlink">
    <!-- Generator: Sketch 48.2 (47327) - http://www.bohemiancoding.com/sketch -->
    <title>Group 7</title>
    <desc>Created with Sketch.</desc>
    <defs></defs>
    <g id="1" stroke="none" stroke-width="1" fill="none" fill-rule="evenodd" transform="translate(-27.000000, -175.000000)">
        <g id="Group-7" transform="translate(28.000000, 175.000000)">
            <path d="M885.758,327 C885.46396,327 885.184324,326.828156 885.061017,326.542215 C884.896958,326.158977 885.075069,325.715542 885.459393,325.551397 C904.541422,317.415212 915.485185,305.494601 915.485185,292.846713 C915.485185,288.865592 914.403175,284.921221 912.269366,281.123845 C912.064908,280.759856 912.195241,280.299971 912.559893,280.096278 C912.925949,279.892585 913.386858,280.02278 913.590613,280.386069 C915.852999,284.411987 917,288.604151 917,292.846713 C917,306.12738 905.721094,318.553725 886.055904,326.939102 C885.958242,326.980401 885.857418,327 885.758,327" id="Fill-3" fill="#FFFFFE"></path>
            <path d="M825.244803,337 C825.232885,337 825.221317,336.999641 825.209398,336.998922 C808.842381,336.229382 793.37101,332.942037 780.468094,327.491643 C780.082142,327.328822 779.898105,326.87594 780.057253,326.480208 C780.216051,326.084835 780.65809,325.895056 781.044042,326.058956 C793.787459,331.441418 809.083557,334.689226 825.278806,335.450857 C825.695606,335.470267 826.01846,335.832572 825.99918,336.260293 C825.980601,336.675794 825.646179,337 825.244803,337" id="Fill-4" fill="#FFFFFE"></path>
            <path d="M880.759522,337 C880.440505,337 880.143672,336.80143 880.038389,336.487663 C879.90705,336.096405 880.123601,335.674704 880.521844,335.545668 C893.452224,331.357372 904.255476,325.486078 911.763279,318.566585 C919.429183,311.501106 923.481326,303.462844 923.481326,295.320799 C923.481326,295.134337 923.479214,294.94753 923.475693,294.76176 C923.466538,294.350091 923.799287,294.00934 924.218304,294.000346 C924.223938,294 924.229219,294 924.234853,294 C924.646476,294 924.984859,294.3238 924.99331,294.730279 C924.997887,294.926773 925,295.123267 925,295.320799 C925,303.885236 920.78201,312.299882 912.80202,319.654221 C905.134356,326.72143 894.136032,332.706538 880.9972,336.962638 C880.918326,336.987892 880.838396,337 880.759522,337" id="Fill-5" fill="#FFFFFE"></path>
            <ellipse id="Oval-6" stroke="#FFFFFF" cx="813.5" cy="310.5" rx="289.5" ry="152.5"></ellipse>
            <ellipse id="Oval-6" stroke="#FFFFFF" cx="827.5" cy="317.5" rx="327.5" ry="171.5"></ellipse>
            <ellipse id="Oval-6" stroke="#FFFFFF" cx="818" cy="341" rx="402" ry="210"></ellipse>
            <ellipse id="Oval-6" stroke="#FFFFFF" opacity="0.750169837" cx="821" cy="370.5" rx="499" ry="260.5"></ellipse>
            <ellipse id="Oval-6" stroke="#FFFFFF" opacity="0.762284873" cx="829" cy="374" rx="565" ry="296"></ellipse>
            <ellipse id="Oval-6" stroke="#FFFFFF" opacity="0.700747283" cx="809.5" cy="399" rx="645.5" ry="337"></ellipse>
            <path d="M765.5,747 C1144.0912,747 1451,587.837229 1451,391.5 C1451,197.309874 1150.76707,39.4855867 777.894555,36.056944 C773.771814,36.0190345 769.640193,36 765.5,36 C748.721625,36 732.084039,36.3126081 715.607719,36.9272061 C360.308476,50.1805403 80,203.86403 80,391.5 C80,587.837229 386.908804,747 765.5,747 Z" id="Oval-6" stroke="#FFFFFF" opacity="0.673686594" transform="translate(765.500000, 391.500000) rotate(-3.000000) translate(-765.500000, -391.500000) "></path>
            <path d="M753,780 C1154.51101,780 1480,609.644347 1480,399.5 C1480,189.355653 1154.51101,19 753,19 C726.705757,19 700.73755,19.7306056 675.165444,21.1551457 C632.113814,23.5534141 590.184856,27.9185031 549.712897,34.075431 C545.532505,34.7113867 541.367657,35.3664597 537.218722,36.0404571 C241.070271,84.1499831 26,228.679592 26,399.5 C26,609.644347 351.488987,780 753,780 Z" id="Oval-6" stroke="#FFFFFF" opacity="0.53979846"></path>
            <path d="M742,762 C1151.79528,762 1484,591.644347 1484,381.5 C1484,171.355653 1151.79528,1 742,1 C715.163234,1 688.659232,1.73060557 662.559504,3.1551457 C618.619602,5.55341414 575.825534,9.91850308 534.518528,16.075431 C530.251882,16.7113867 526.001102,17.3664597 521.766564,18.0404571 C219.507759,66.1499831 0,210.679592 0,381.5 C0,591.644347 332.204716,762 742,762 Z" id="Oval-6" stroke="#FFFFFF" opacity="0.53979846"></path>
            <path d="M911.240846,272 C911.056705,272 910.872212,271.93333 910.726448,271.798578 C898.961847,260.921775 880.109754,253.007043 857.642794,249.511961 C857.228389,249.44776 856.94496,249.059026 857.00904,248.643835 C857.073823,248.228644 857.463583,247.944324 857.875875,248.009231 C880.637179,251.549818 899.771997,259.601065 911.755596,270.680702 C912.063671,270.965374 912.083036,271.44653 911.799254,271.755189 C911.649266,271.917808 911.445408,272 911.240846,272" id="Fill-6" fill="#FFFFFE"></path>
            <path d="M769.765716,261 C769.486589,261 769.217748,260.845541 769.082973,260.57774 C768.891805,260.198027 769.042186,259.733934 769.418847,259.541575 C784.881463,251.629827 805.048796,246.821209 826.206018,246.001002 C826.633398,245.979191 826.983104,246.316356 826.999419,246.741477 C827.015734,247.166955 826.686598,247.525214 826.264894,247.541662 C805.323312,248.353288 785.381195,253.102911 770.110811,260.915977 C770.000154,260.973184 769.882048,261 769.765716,261" id="Fill-7" fill="#FFFFFE"></path>
            <path d="M817.24489,344 C817.222796,344 817.201053,343.998945 817.17896,343.997188 C795.917931,342.154177 776.447533,336.259918 762.354641,327.399898 C762.000793,327.17809 761.893832,326.710219 762.115469,326.355537 C762.337808,326.000855 762.804227,325.893291 763.158075,326.116153 C777.051424,334.850329 796.28265,340.664443 817.309066,342.486714 C817.724987,342.52292 818.033245,342.890257 817.997123,343.307157 C817.963106,343.701912 817.632755,344 817.24489,344" id="Fill-8" fill="#FFFFFE"></path>
            <path d="M868.760646,349 C868.410925,349 868.095789,348.759574 868.017798,348.407159 C867.92781,347.9998 868.187895,347.597341 868.598313,347.50845 C883.881559,344.187283 897.50231,338.746728 907.987926,331.775077 C918.528948,324.76598 925.62711,316.379771 928.514863,307.522859 C928.644023,307.125999 929.07244,306.908671 929.472977,307.036758 C929.872809,307.164845 930.092311,307.590402 929.962798,307.986913 C926.968823,317.169642 919.663158,325.828824 908.835231,333.028652 C898.192928,340.104592 884.392201,345.621439 868.92439,348.982502 C868.868985,348.994401 868.814286,349 868.760646,349" id="Fill-9" fill="#FFFFFE"></path>
            <path d="M908.241121,265 C908.096261,265 907.949995,264.958833 907.820254,264.873009 C893.536419,255.392284 873.597417,248.867243 851.676082,246.499765 C851.260137,246.455109 850.959166,246.083904 851.004522,245.670834 C851.049879,245.257415 851.425742,244.961219 851.84028,245.004131 C873.99965,247.397425 894.180203,254.009337 908.663396,263.622635 C909.011482,263.853591 909.104656,264.320737 908.871896,264.665776 C908.725629,264.882777 908.485485,265 908.241121,265" id="Fill-10" fill="#FFFFFE"></path>
            <path d="M735.760712,288 C735.672857,288 735.583591,287.984971 735.496443,287.952815 C735.102684,287.808114 734.901572,287.37471 735.047643,286.984297 C740.41242,272.646667 756.427364,259.911234 778.986595,252.043206 C779.38247,251.904447 779.817156,252.111013 779.956524,252.503872 C780.096245,252.896382 779.888075,253.326641 779.491494,253.464701 C757.360599,261.183834 741.681196,273.592117 736.474134,287.507877 C736.360523,287.812308 736.069791,288 735.760712,288" id="Fill-11" fill="#FFFFFE"></path>
            <path d="M685.760712,258 C685.672857,258 685.583591,257.984971 685.496443,257.952815 C685.102684,257.808114 684.901572,257.37471 685.047643,256.984297 C690.41242,242.646667 706.427364,229.911234 728.986595,222.043206 C729.38247,221.904447 729.817156,222.111013 729.956524,222.503872 C730.096245,222.896382 729.888075,223.326641 729.491494,223.464701 C707.360599,231.183834 691.681196,243.592117 686.474134,257.507877 C686.360523,257.812308 686.069791,258 685.760712,258" id="Fill-11" fill="#FFFFFE" opacity="0.715070199"></path>
            <path d="M650.473332,237 C650.418667,237 650.363124,236.990815 650.308898,236.971165 C650.063893,236.882736 649.938756,236.617878 650.029645,236.379293 C653.367728,227.617408 663.332582,219.834643 677.369437,215.026404 C677.615759,214.941606 677.886231,215.067841 677.972948,215.307922 C678.059886,215.547789 677.930358,215.810725 677.683596,215.895095 C663.913261,220.612343 654.157189,228.195183 650.917239,236.699258 C650.846547,236.885299 650.665648,237 650.473332,237" id="Fill-11" fill="#FFFFFE" opacity="0.715070199"></path>
            <path d="M797.243353,348 C797.191719,348 797.140085,347.994889 797.087748,347.984327 C777.634344,344.041769 760.651297,336.693642 749.266509,327.293994 C748.947923,327.030952 748.909637,326.567563 749.180452,326.258523 C749.452321,325.949484 749.929673,325.912344 750.248259,326.175045 C761.443371,335.418299 778.187918,342.652964 797.397202,346.546457 C797.806762,346.629254 798.069498,347.018364 797.983793,347.415652 C797.908976,347.762172 797.594254,348 797.243353,348" id="Fill-12" fill="#FFFFFE"></path>
            <path d="M855.764904,358 C855.383171,358 855.053283,357.72189 855.005699,357.342396 C854.954565,356.931654 855.253204,356.55841 855.672933,356.508065 C878.864882,353.739463 899.925521,346.699212 914.975023,336.685509 C922.447041,331.713551 928.264293,326.159332 932.266273,320.176664 C936.381884,314.023867 938.468808,307.563446 938.468808,300.974561 C938.468808,297.618836 937.918758,294.256168 936.834282,290.979953 C936.70396,290.586571 936.924477,290.164372 937.326806,290.037295 C937.729489,289.908135 938.160936,290.125485 938.290903,290.518867 C939.425093,293.944379 940,297.462247 940,300.974561 C940,307.859264 937.829272,314.595711 933.547829,320.996065 C929.435059,327.144697 923.476122,332.839533 915.836496,337.922943 C900.588848,348.068931 879.288517,355.197024 855.85865,357.994445 C855.827046,357.998264 855.795442,358 855.764904,358" id="Fill-13" fill="#FFFFFE"></path>
            <path d="M905.005699,387.347817 C904.954565,386.937042 905.253204,386.563768 905.672933,386.513419 C928.864882,383.744594 949.925521,376.703776 964.975023,366.689267 C972.447041,361.716909 978.264293,356.162243 982.266273,350.179094 C986.381884,344.025801 988.468808,337.56486 988.468808,330.975444 C988.468808,327.61945 987.918758,324.256511 986.834282,320.980032 C986.70396,320.586619 986.924477,320.164385 987.326806,320.037298 C987.729489,319.908128 988.160936,320.125495 988.290903,320.518908 C989.425093,323.944696 990,327.462848 990,330.975444 C990,337.860702 987.829272,344.597691 983.547829,350.99856 C979.435059,357.147687 973.476122,362.842981 965.836496,367.926801 C950.588848,378.073605 929.288517,385.202272 905.85865,387.999918 C905.383171,388.005474 905.053283,387.727341 905.005699,387.347817 Z" id="Fill-13" fill="#FFFFFE" opacity="0.715070199" transform="translate(947.500000, 354.000000) rotate(-7.000000) translate(-947.500000, -354.000000) "></path>
            <path d="M918.240567,268 C918.081896,268 917.921466,267.950802 917.784959,267.848569 C899.75308,254.364569 872.030291,245.855815 841.724786,244.503751 C841.306471,244.485258 840.982443,244.133547 841.000738,243.718333 C841.019736,243.303118 841.382112,242.984206 841.792687,243.000605 C872.396889,244.366277 900.427872,252.984941 918.697935,266.64689 C919.032516,266.897065 919.099362,267.368804 918.847107,267.700627 C918.697935,267.89672 918.47101,268 918.240567,268" id="Fill-14" fill="#FFFFFE"></path>
            <path d="M748.76282,266 C748.525627,266 748.291969,265.890918 748.143149,265.686038 C747.897472,265.347603 747.975947,264.87666 748.317774,264.634022 C766.931245,251.41826 794.95644,243.168898 825.20828,242.000806 C825.625754,241.981577 825.983135,242.308824 825.999395,242.724876 C826.016009,243.140928 825.688322,243.49125 825.267667,243.507333 C795.30675,244.664237 767.583792,252.81081 749.206453,265.858752 C749.072126,265.954199 748.916589,266 748.76282,266" id="Fill-15" fill="#FFFFFE"></path>
            <path d="M791.238849,355 C791.181251,355 791.122946,354.99378 791.064641,354.980648 C776.125537,351.569425 762.581509,346.243343 751.897242,339.577792 C741.079405,332.828956 733.186348,324.696763 729.071442,316.060022 C728.893701,315.687141 729.059075,315.243762 729.440353,315.070281 C729.821631,314.895763 730.274641,315.057494 730.452736,315.431066 C738.546856,332.419789 761.335199,346.662186 791.41129,353.529556 C791.820837,353.622863 792.075611,354.023736 791.97985,354.424263 C791.89787,354.768116 791.584791,355 791.238849,355" id="Fill-16" fill="#FFFFFE"></path>
            <path d="M751.238849,385 C751.181251,385 751.122946,384.99378 751.064641,384.980648 C736.125537,381.569425 722.581509,376.243343 711.897242,369.577792 C701.079405,362.828956 693.186348,354.696763 689.071442,346.060022 C688.893701,345.687141 689.059075,345.243762 689.440353,345.070281 C689.821631,344.895763 690.274641,345.057494 690.452736,345.431066 C698.546856,362.419789 721.335199,376.662186 751.41129,383.529556 C751.820837,383.622863 752.075611,384.023736 751.97985,384.424263 C751.89787,384.768116 751.584791,385 751.238849,385" id="Fill-16" fill="#FFFFFE" opacity="0.715070199"></path>
            <path d="M651.238849,365 C651.181251,365 651.122946,364.99378 651.064641,364.980648 C636.125537,361.569425 622.581509,356.243343 611.897242,349.577792 C601.079405,342.828956 593.186348,334.696763 589.071442,326.060022 C588.893701,325.687141 589.059075,325.243762 589.440353,325.070281 C589.821631,324.895763 590.274641,325.057494 590.452736,325.431066 C598.546856,342.419789 621.335199,356.662186 651.41129,363.529556 C651.820837,363.622863 652.075611,364.023736 651.97985,364.424263 C651.89787,364.768116 651.584791,365 651.238849,365" id="Fill-16" fill="#FFFFFE" opacity="0.715070199" transform="translate(620.500000, 345.000000) rotate(-330.000000) translate(-620.500000, -345.000000) "></path>
            <path d="M885.758424,368 C885.424643,368 885.118999,367.781336 885.026849,367.44848 C884.916761,367.049679 885.155226,366.638382 885.558999,366.529744 C905.376255,361.197809 922.120541,352.954169 933.982616,342.688406 C946.085971,332.214739 952.483036,320.104908 952.483036,307.668817 C952.483036,304.077865 951.948071,300.475459 950.892211,296.961213 C950.77333,296.564841 951.002299,296.148338 951.403962,296.031023 C951.803867,295.913708 952.226985,296.139314 952.346569,296.535686 C953.443581,300.188072 954,303.933824 954,307.668817 C954,320.548137 947.42391,333.047051 934.982554,343.814006 C922.948488,354.227974 905.996336,362.582682 885.958201,367.973621 C885.891022,367.99167 885.824196,368 885.758424,368" id="Fill-17" fill="#FFFFFE"></path>
            <path d="M919.238507,261 C919.10974,261 918.978855,260.968047 918.859613,260.900704 C899.388893,249.977495 873.412411,243.080398 845.715735,241.48033 C845.296271,241.455935 844.976645,241.105136 845.00134,240.696616 C845.026388,240.288438 845.384468,239.978182 845.805696,240.001202 C873.733448,241.615014 899.94771,248.581515 919.618813,259.617076 C919.98289,259.821165 920.108129,260.274351 919.898221,260.628586 C919.757458,260.86669 919.501687,261 919.238507,261" id="Fill-18" fill="#FFFFFE"></path>
            <path d="M949.238507,241 C949.10974,241 948.978855,240.968047 948.859613,240.900704 C929.388893,229.977495 903.412411,223.080398 875.715735,221.48033 C875.296271,221.455935 874.976645,221.105136 875.00134,220.696616 C875.026388,220.288438 875.384468,219.978182 875.805696,220.001202 C903.733448,221.615014 929.94771,228.581515 949.618813,239.617076 C949.98289,239.821165 950.108129,240.274351 949.898221,240.628586 C949.757458,240.86669 949.501687,241 949.238507,241" id="Fill-18" fill="#FFFFFE" opacity="0.715070199"></path>
            <path d="M763.760068,253 C763.456333,253 763.169511,252.823054 763.052175,252.533691 C762.899603,252.157043 763.093049,251.732508 763.483817,251.585449 C781.985582,244.624093 803.679032,240.61784 826.218852,240.000397 C826.637457,239.987151 826.987704,240.30742 826.999684,240.711578 C827.011664,241.115735 826.681502,241.452986 826.26184,241.464193 C803.894677,242.077222 782.377407,246.048833 764.036319,252.949395 C763.94541,252.983698 763.852034,253 763.760068,253" id="Fill-19" fill="#FFFFFE"></path>
            <path d="M763.760068,223 C763.456333,223 763.169511,222.823054 763.052175,222.533691 C762.899603,222.157043 763.093049,221.732508 763.483817,221.585449 C781.985582,214.624093 803.679032,210.61784 826.218852,210.000397 C826.637457,209.987151 826.987704,210.30742 826.999684,210.711578 C827.011664,211.115735 826.681502,211.452986 826.26184,211.464193 C803.894677,212.077222 782.377407,216.048833 764.036319,222.949395 C763.94541,222.983698 763.852034,223 763.760068,223" id="Fill-19" fill="#FFFFFE" opacity="0.715070199"></path>
            <path d="M778.445039,141.999693 C778.26111,141.992835 778.091166,141.871939 778.026231,141.682177 C777.941805,141.435179 778.067925,141.165028 778.307666,141.078759 C789.65872,136.995097 802.880027,134.894377 816.542196,135.004087 C816.795964,135.004975 817.001286,135.219981 816.999994,135.481593 C816.998702,135.743206 816.791639,135.953828 816.537273,135.951599 C802.979751,135.842932 789.865864,137.92523 778.613394,141.973209 C778.557618,141.993337 778.50073,142.00177 778.445039,141.999693 Z" id="Fill-19" fill="#FFFFFE" opacity="0.715070199"></path>
            <path d="M849.760097,366 C849.367722,366 849.034627,365.705424 849.002518,365.31748 C848.968643,364.908175 849.280567,364.549861 849.699053,364.516441 C873.219304,362.650107 894.660533,356.841971 911.703779,347.71943 C928.637287,338.655458 939.636128,327.178724 943.510475,314.529888 C943.630446,314.136776 944.055283,313.913863 944.457185,314.031349 C944.859792,314.148834 945.088442,314.562618 944.967766,314.956075 C940.976624,327.986653 929.726903,339.766233 912.434894,349.022108 C895.205694,358.24422 873.554516,364.114372 849.822552,365.997588 C849.801381,365.998966 849.780916,366 849.760097,366" id="Fill-20" fill="#FFFFFE"></path>
            <path d="M923.235977,267 C923.08093,267 922.924113,266.953093 922.789243,266.856128 C905.216867,254.272771 879.968944,245.980714 851.69583,243.506889 C851.275999,243.470484 850.96555,243.103978 851.003073,242.688815 C851.039534,242.272952 851.409099,241.963855 851.8307,242.003411 C880.373908,244.50069 905.892278,252.892862 923.684481,265.633743 C924.025727,265.87808 924.102189,266.350302 923.85475,266.687753 C923.705721,266.891484 923.472442,267 923.235977,267" id="Fill-21" fill="#FFFFFE"></path>
            <path d="M820.237383,366 C820.220035,366 820.202334,365.999308 820.184986,365.998271 C787.855282,363.852063 758.73065,354.129113 740.278737,339.321802 C739.953025,339.060356 739.905939,338.590722 740.173589,338.27256 C740.440885,337.953707 740.921663,337.908404 741.247729,338.169504 C759.459607,352.784189 788.268794,362.385061 820.288364,364.510174 C820.708957,364.538186 821.02688,364.894043 820.998203,365.304886 C820.970942,365.698438 820.635318,366 820.237383,366" id="Fill-22" fill="#FFFFFE"></path>
            <path d="M762.759654,327 C749.066597,318.38217 741.338859,307.377919 741,296.013671 L741.451696,296 C741.785664,307.208261 749.438294,318.081063 763,326.615817 L762.759654,327" id="Fill-23" fill="#FFFFFE"></path>
            <path d="M780.15226,253 L780,252.564533 C795.235582,247.17452 812.869348,244.212919 830.995031,244 L831,244.461502 C812.924361,244.673707 795.341348,247.626035 780.15226,253" id="Fill-24" fill="#FFFFFE"></path>
            <path d="M832.500178,273.518297 C850.952634,273.518297 866.447049,278.400858 870.786126,285 C871.577118,283.797499 872,282.53826 872,281.240851 C872,272.823687 854.315418,266 832.500178,266 C810.684582,266 793,272.823687 793,281.240851 C793,282.53826 793.423238,283.797499 794.213874,285 C798.552951,278.400858 814.047366,273.518297 832.500178,273.518297" id="Fill-25" fill="#D8E0E1"></path>
            <path d="M832.5,246 C790.802623,246 757,264.804222 757,288 C757,311.196126 790.802623,330 832.5,330 C874.197377,330 908,311.196126 908,288 C908,264.804222 874.197377,246 832.5,246 Z M871.711043,281.608046 C871.711043,290.117904 854.152748,297.016389 832.493291,297.016389 C810.833834,297.016389 793.275185,290.117904 793.275185,281.608046 C793.275185,273.098187 810.833834,266.199702 832.493291,266.199702 C854.152748,266.199702 871.711043,273.098187 871.711043,281.608046 Z" id="Fill-26" fill="#FFFFFE"></path>
            <path d="M907.645465,284 C907.645818,284.053244 907.648997,284.106144 907.648997,284.159388 C907.648997,306.853911 873.937126,325.317107 832.5,325.317107 C791.062521,325.317107 757.351003,306.853911 757.351003,284.159388 C757.351003,284.106144 757.354182,284.053244 757.354888,284 C757.122533,285.324566 757,286.666994 757,288.025223 C757,288.08362 757.003531,288.141329 757.004237,288.199725 C760.700721,309.381784 793.146649,326 832.5,326 C871.852998,326 904.298926,309.382128 907.995763,288.200069 C907.996116,288.141672 908,288.08362 908,288.025223 C908,286.667337 907.877467,285.324909 907.645465,284" id="Fill-27" fill="#9B9B9B"></path>
            <path d="M892.146033,262.387643 C883.154341,260.694899 869.72344,264.659038 863,272.070541 C868.323004,274.68242 871.509848,277.981146 871.509848,281.57127 C871.509848,283.643214 870.445318,285.618025 868.52682,287.420692 C878.657253,285.862068 898.781058,291.818301 903.575703,302 C906.436938,297.602737 908,292.865334 908,287.926752 C908,278.306766 902.082947,269.447945 892.146033,262.387643" id="Fill-28" fill="#80221C"></path>
            <path d="M815,247.1869 C816.402792,252.502475 817.974103,259.92645 818.97922,267 C823.311694,266.356293 828.009055,266.000361 832.921825,266.000361 C837.512012,266.000361 841.914643,266.311199 846.007383,266.876766 C847.020609,259.788758 848.597913,252.363751 850,247.071239 C844.514691,246.370734 838.800226,246 832.928523,246 C826.749751,246 820.7469,246.413074 815,247.1869" id="Fill-29" fill="#80221C"></path>
            <path d="M757,287.777454 C757,292.400465 758.371798,296.846474 760.899906,301 C766.486392,290.972421 786.984844,285.335861 796.355041,287.483597 C794.308963,285.635561 793.170611,283.598838 793.170611,281.45832 C793.170611,278.026892 796.084977,274.861138 801,272.314031 C794.696982,265.062459 781.9744,261.019945 772.971095,262.20431 C762.96535,269.253448 757,278.131031 757,287.777454" id="Fill-30" fill="#80221C"></path>
            <path d="M858.988742,327.31498 C859.232544,314.65342 855.497304,299.361228 849.659841,295.138602 C844.459308,296.143906 838.616891,296.709191 832.439732,296.709191 C825.987985,296.709191 819.905658,296.090219 814.534569,295 C808.616429,299.001213 804.802987,314.361127 805.007867,327.124095 C813.514774,328.979959 822.767597,330 832.446455,330 C841.786679,330 850.729176,329.049436 858.988742,327.31498" id="Fill-31" fill="#80221C"></path>
            <path d="M870.795483,285 C871.580378,283.816613 872,282.57739 872,281.300604 C872,277.785975 868.832539,274.556617 863.541909,272 C861.906123,273.775927 860.674431,275.755232 860,277.903738 C865.167108,279.810626 868.974413,282.252863 870.795483,285" id="Fill-32" fill="#254D67"></path>
            <path d="M845.160399,273.892835 C845.343886,271.655483 845.63514,269.266069 846,266.833723 C841.911524,266.295604 837.513481,266 832.928077,266 C828.020427,266 823.328311,266.338536 819,266.951374 C819.362395,269.382082 819.650832,271.767892 819.830796,274 C823.925611,273.459588 828.333868,273.164967 832.928077,273.164967 C837.201448,273.164967 841.311055,273.422228 845.160399,273.892835" id="Fill-33" fill="#254D67"></path>
            <path d="M793,281.214076 C793,282.520726 793.411817,283.788934 794.181117,285 C795.875794,282.331984 799.322941,279.94379 804,278.039054 C803.395426,275.84549 802.240609,273.823006 800.695086,272 C795.864374,274.566546 793,277.75646 793,281.214076" id="Fill-34" fill="#254D67"></path>
            <path d="M908,286 C908.012,286.151 908.0195,286.3025 908.0295,286.454 C908.0195,286.3025 908.012,286.151 908,286" id="Fill-35" fill="#254D67"></path>
            <path d="M908,284 C908.0355,284.166419 908.069,284.332838 908.1005,284.5 C908.069,284.332838 908.0355,284.166419 908,284" id="Fill-36" fill="#254D67"></path>
            <path d="M757,284.5 C757.0325,284.333211 757.0655,284.166422 757.102,284 C757.066,284.166422 757.0325,284.333211 757,284.5" id="Fill-37" fill="#254D67"></path>
            <path d="M757,286.4445 C757.01,286.2965 757.017,286.148 757.029,286 C757.017,286.148 757.01,286.2965 757,286.4445" id="Fill-38" fill="#254D67"></path>
            <path d="M762,299.43519 C758.98221,294.680106 757.322685,289.511936 757.322685,284.109991 C757.322685,284.07321 757.323984,284.036782 757.324958,284 C757.315868,284.058709 757.303207,284.116357 757.294442,284.175066 C757.270744,284.335632 757.249318,284.496552 757.228217,284.657471 C757.165563,285.144474 757.111998,285.633245 757.075964,286.124492 C757.068173,286.229178 757.063628,286.334218 757.057135,286.438904 C757.023374,286.987091 757,287.537047 757,288.090186 C757,288.155615 757.005843,288.219629 757.006493,288.285057 C757.647319,292.383731 759.222763,296.31618 761.597455,300 C761.72601,299.809726 761.862031,299.622281 762,299.43519" id="Fill-41" fill="#254D67"></path>
            <path d="M908.937492,286.361426 C908.930266,286.258222 908.924846,286.155019 908.916175,286.052155 C908.87643,285.581778 908.818258,285.114465 908.748886,284.648515 C908.726123,284.495242 908.701915,284.34265 908.676262,284.190059 C908.665422,284.126365 908.649886,284.063693 908.638685,284 C908.639407,284.03372 908.640853,284.06744 908.640853,284.101501 C908.640853,289.523619 906.633024,294.7005 903,299.437999 C903.144887,299.624651 903.292304,299.809941 903.425991,300 C906.322293,296.282278 908.237986,292.293773 908.992051,288.125428 C908.992774,288.061735 909,287.998723 909,287.934689 C909,287.407429 908.974347,286.883576 908.937492,286.361426" id="Fill-42" fill="#254D67"></path>
            <path d="M859,323.994595 C858.991492,323.733956 858.979085,323.471744 858.967741,323.210319 C850.712187,325.152727 841.77387,326.218477 832.443477,326.218477 C822.778793,326.218477 813.533835,325.076462 805.033677,323 C805.021979,323.260246 805.009217,323.520885 805,323.780737 C813.518591,325.857592 822.772058,327 832.443477,327 C841.779542,327 850.72743,325.936609 859,323.994595" id="Fill-43" fill="#9B9B9B"></path>
            <path d="M828.037819,255.40295 L828,258.134023 C836.660536,260.398977 857.647548,267.101314 868.537261,246.532374 C870.417504,242.93226 866.147532,240.014739 863.26473,243.713664 C856.819456,252.169795 852.624408,260.392693 828.037819,255.40295" id="Fill-44" fill="#04243D"></path>
            <polyline id="Fill-45" fill="#FF5E54" points="823 285.127172 790.696426 278 762.838454 316.429125 754 315.085714 763.055072 322 792.285196 289.000174 818.119756 296.354147 823 285.127172"></polyline>
            <polyline id="Fill-46" fill="#CD572A" points="804 280.313164 803.635626 291 802 290.628266 802.40456 280 804 280.313164"></polyline>
            <polyline id="Fill-47" fill="#FF5E54" points="822.543905 272.660594 795.794514 267 797.165736 316.94303 789 323 801.942272 321.131518 803.398367 278.677926 824 288.386725 822.543905 272.660594"></polyline>
            <polyline id="Fill-48" fill="#CA443C" points="803 277.954052 803.092129 276 822.525796 282.114661 823 288 803 277.954052"></polyline>
            <path d="M867.652701,239 C851.411284,257.13685 848.865958,279.79458 820.986743,272.711055 L819,296.693677 C860.091107,303.985296 865.148817,280.123624 875,240.802775 L867.652701,239" id="Fill-49" fill="#04243D"></path>
            <polyline id="Fill-50" fill="#04243D" points="754 315 762.893366 322 766 318.384666 762.944481 315.984656 762.680616 316.360064 754 315"></polyline>
            <polyline id="Fill-51" fill="#04243D" points="789 324 801.810711 321.991292 802 316 797.064651 316.774062 797.082729 317.488467 789 324"></polyline>
            <path d="M875,240.221844 L873.702113,240 C861.443548,273.725096 853.353801,298.222391 819.463202,290.476895 L819,295.692819 C859.843942,303.026122 865.559247,278.821619 875,240.221844" id="Fill-52" fill="#031626"></path>
            <path d="M882.684451,225.165746 C878.385642,228.155247 875.143754,231.332128 874.688552,238.361969 L874.61636,240 L867.087398,239.386039 C868.281947,237.409968 871.097439,234.511412 865.022633,228.957275 C861.743404,225.958851 858.944271,222.54826 858.057695,218.532286 L854,218.005151 C856.80589,217.279997 857.547371,214.302851 858.422923,211.609863 C860.003325,206.385872 866.808232,200.199242 878.40449,202.491044 C889.279538,204.640424 893.538872,217.532926 882.684451,225.165746" id="Fill-53" fill="#FF5E54"></path>
            <path d="M866.007901,218.78771 C865.633274,218.635955 865.278824,218.405589 864.968765,218.102422 C864.143172,217.293407 863.817644,216.133715 864.099455,215 L864.664086,215.14526 C864.430364,216.084498 864.688971,217.006987 865.372649,217.676211 C866.012609,218.302711 866.881246,218.552901 867.640253,218.32732 C868.49712,218.072345 869.134053,217.229492 869.433351,215.953934 L870,216.090992 C869.649586,217.581877 868.869729,218.577509 867.80369,218.89469 C867.220563,219.068319 866.590019,219.023545 866.007901,218.78771" id="Fill-54" fill="#222B24"></path>
            <path d="M866.380788,228.778971 C865.862227,228.576943 865.383085,228.241726 865,227.7924 L865.509759,227.377868 C866.167623,228.150813 867.16992,228.508104 868.065059,228.289614 C868.745886,228.122005 869.215078,227.652102 869.351703,227 L870,227.129822 C869.814007,228.021739 869.150785,228.689929 868.226177,228.917398 C867.618446,229.066301 866.973976,229.010182 866.380788,228.778971" id="Fill-55" fill="#222B24"></path>
            <path d="M886.239086,231.276554 C896.95857,223.095647 899.301387,196.105337 875.373792,197.022835 C862.175895,197.524047 860.852336,206.355835 857,204.156764 C858.099913,211.893192 870.49163,213.815552 875.289969,211.067584 C876.283519,212.191832 876.888242,213.64152 877.238326,215.298655 C877.592989,215.253755 877.957866,215.250622 878.327321,215.325456 C880.130924,215.690576 881.293176,217.430898 880.924073,219.212988 C880.59829,220.784499 879.189852,221.860018 877.625391,221.842963 C874.933193,231.559182 874.783509,242.445594 886.761747,240.841713 C883.337683,240.353727 880.386972,235.742917 886.239086,231.276554" id="Fill-56" fill="#04243D"></path>
            <polyline id="Fill-57" fill="#FFFFFE" points="875 241.641297 874.705953 238.317604 868.743685 238.625315 867.780219 237 866.290096 238.441602 865.971545 241.610035 851 267 868.719181 242.676834 875 241.641297"></polyline>
            <path d="M825.099261,274.366575 L805.144735,263.453346 L820.664883,258.709074 C821.376326,258.503054 821.374918,257.51676 821.374918,257 L802.000242,262.923239 C801.993205,263.382505 802.139575,263.952653 802.425278,264.140193 L802.424223,264.151828 L825.114039,277 L826,276.153676 L825.099261,274.366575" id="Fill-58" fill="#ADC1C7"></path>
            <polyline id="Fill-59" fill="#F2F1F0" points="824.551412 276 844 270.02202 821.269653 257 802 263.004648 824.551412 276"></polyline>
            <path d="M845,270 C845,270.503018 845.00144,271.463083 844.273338,271.663624 L825.725457,276.990954 C825.240056,277.091891 824.991234,276.327036 825.000236,275.749731 L845,270" id="Fill-60" fill="#ADC1C7"></path>
            <polyline id="Fill-61" fill="#D8E0E1" points="827.980067 268 834 266.11202 826.96443 262 821 263.895981 827.980067 268"></polyline>
            <polyline id="Fill-62" fill="#D8E0E1" points="824.775619 274 833 271.544902 814.150864 261 806 263.465226 824.775619 274"></polyline>
            <polyline id="Fill-63" fill="#FFFFFE" points="824 269.653897 822.998538 269 822 269.346103 823.001462 270 824 269.653897"></polyline>
            <polyline id="Fill-64" fill="#FFFFFE" points="821 267.653783 819.998684 267 819 267.346217 820.001316 268 821 267.653783"></polyline>
            <polyline id="Fill-65" fill="#FFFFFE" points="823 268.653997 821.998684 268 821 268.34633 822.001316 269 823 268.653997"></polyline>
            <polyline id="Fill-66" fill="#FFFFFE" points="820 266.653783 818.998538 266 818 266.346217 819.001462 267 820 266.653783"></polyline>
            <polyline id="Fill-67" fill="#FFFFFE" points="817 265.655139 815.99548 265 815 265.344535 816.004228 266 817 265.655139"></polyline>
            <polyline id="Fill-68" fill="#FFFFFE" points="818 266.653783 816.99883 266 816 266.346217 817.001463 267 818 266.653783"></polyline>
            <polyline id="Fill-69" fill="#FFFFFE" points="826.001609 269 827 268.653783 825.998684 268 825 268.346217 826.001609 269"></polyline>
            <polyline id="Fill-70" fill="#FFFFFE" points="815 264.650925 814.004857 264 813 264.349075 813.995143 265 815 264.650925"></polyline>
            <polyline id="Fill-71" fill="#FFFFFE" points="828.00117 270 829 269.653456 827.998537 269 827 269.346217 828.00117 270"></polyline>
            <polyline id="Fill-72" fill="#FFFFFE" points="827.998976 270 827 270.346431 828.001024 271 829 270.653569 827.998976 270"></polyline>
            <polyline id="Fill-73" fill="#FFFFFE" points="827 271.65367 825.998976 271 825 271.346003 826.001316 272 827 271.65367"></polyline>
            <polyline id="Fill-74" fill="#FFFFFE" points="826 270.653783 824.998538 270 824 270.346217 825.001462 271 826 270.653783"></polyline>
            <polyline id="Fill-75" fill="#FFFFFE" points="819 266.346217 820.000877 267 821 266.653783 819.99883 266 819 266.346217"></polyline>
            <polyline id="Fill-76" fill="#FFFFFE" points="821 267.346217 822.001024 268 823 267.653456 821.998976 267 821 267.346217"></polyline>
            <polyline id="Fill-77" fill="#FFFFFE" points="812.002046 264 813 263.654123 811.997662 263 811 263.345877 812.002046 264"></polyline>
            <polyline id="Fill-78" fill="#FFFFFE" points="822 268.346431 823.000877 269 824 268.653569 822.99883 268 822 268.346431"></polyline>
            <polyline id="Fill-79" fill="#FFFFFE" points="824 268.346431 825.00117 269 826 268.653897 824.99883 268 824 268.346431"></polyline>
            <polyline id="Fill-80" fill="#FFFFFE" points="829.001316 271 830 270.653997 828.998684 270 828 270.34633 829.001316 271"></polyline>
            <polyline id="Fill-81" fill="#FFFFFE" points="827 270.653456 825.99883 270 825 270.346217 826.000877 271 827 270.653456"></polyline>
            <polyline id="Fill-82" fill="#FFFFFE" points="815 263.34929 815.994851 264 817 263.65071 816.005149 263 815 263.34929"></polyline>
            <polyline id="Fill-83" fill="#FFFFFE" points="825.001316 268 826 267.653783 824.998684 267 824 267.346217 825.001316 268"></polyline>
            <polyline id="Fill-84" fill="#FFFFFE" points="813 263.345764 814.001899 264 815 263.653909 813.998101 263 813 263.345764"></polyline>
            <polyline id="Fill-85" fill="#FFFFFE" points="816 264.345075 817.004373 265 818 264.655251 816.995918 264 816 264.345075"></polyline>
            <polyline id="Fill-86" fill="#FFFFFE" points="818 265.346544 819.001024 266 820 265.653783 818.998976 265 818 265.346544"></polyline>
            <polyline id="Fill-87" fill="#FFFFFE" points="830 271.34633 831.001316 272 832 271.653997 830.998684 271 830 271.34633"></polyline>
            <polyline id="Fill-88" fill="#FFFFFE" points="819.998976 269 819 269.34633 820.001024 270 821 269.65367 819.998976 269"></polyline>
            <polyline id="Fill-89" fill="#FFFFFE" points="821.998976 270 821 270.346544 822.001024 271 823 270.653783 821.998976 270"></polyline>
            <polyline id="Fill-90" fill="#FFFFFE" points="822.998976 271 822 271.346431 823.001024 272 824 271.653569 822.998976 271"></polyline>
            <polyline id="Fill-91" fill="#FFFFFE" points="816.999123 267 816 267.346217 817.00117 268 818 267.653456 816.999123 267"></polyline>
            <polyline id="Fill-92" fill="#FFFFFE" points="815.999123 266 815 266.346217 816.00117 267 817 266.653456 815.999123 266"></polyline>
            <polyline id="Fill-93" fill="#FFFFFE" points="824.999123 271 824 271.34633 825.000877 272 826 271.65367 824.999123 271"></polyline>
            <polyline id="Fill-94" fill="#FFFFFE" points="813.995773 265 813 265.345075 814.004227 266 815 265.655251 813.995773 265"></polyline>
            <polyline id="Fill-95" fill="#FFFFFE" points="825 272.346217 826.001316 273 827 272.653783 825.998976 272 825 272.346217"></polyline>
            <polyline id="Fill-96" fill="#FFFFFE" points="823.001463 267 824 266.653783 822.99883 266 822 266.346217 823.001463 267"></polyline>
            <polyline id="Fill-97" fill="#FFFFFE" points="828 271.346431 829.001024 272 830 271.653569 828.998684 271 828 271.346431"></polyline>
            <polyline id="Fill-98" fill="#FFFFFE" points="827 272.346217 828.00117 273 829 272.653783 827.998538 272 827 272.346217"></polyline>
            <polyline id="Fill-99" fill="#FFFFFE" points="818.999123 268 818 268.346217 819.000877 269 820 268.653783 818.999123 268"></polyline>
            <polyline id="Fill-100" fill="#FFFFFE" points="819.00452 265 820 264.655139 818.99548 264 818 264.344861 819.00452 265"></polyline>
            <polyline id="Fill-101" fill="#FFFFFE" points="816.995143 264 818 263.650925 817.004857 263 816 263.348745 816.995143 264"></polyline>
            <polyline id="Fill-102" fill="#FFFFFE" points="822.001316 267 823 266.653783 821.998684 266 821 266.346217 822.001316 267"></polyline>
            <polyline id="Fill-103" fill="#FFFFFE" points="812.005001 264 811 264.34896 811.994704 265 813 264.65071 812.005001 264"></polyline>
            <polyline id="Fill-104" fill="#FFFFFE" points="820.001316 266 821 265.653783 819.998684 265 819 265.346217 820.001316 266"></polyline>
            <polyline id="Fill-105" fill="#FFFFFE" points="815 261.657374 813.99057 261 813 261.342626 814.00943 262 815 261.657374"></polyline>
            <polyline id="Fill-106" fill="#FFFFFE" points="816.002192 263 817 262.654123 815.997808 262 815 262.345877 816.002192 263"></polyline>
            <polyline id="Fill-107" fill="#FFFFFE" points="813 262.657161 811.991007 262 811 262.342515 812.009283 263 813 262.657161"></polyline>
            <polyline id="Fill-108" fill="#FFFFFE" points="809.990863 263 809 263.342515 810.009137 264 811 263.657161 809.990863 263"></polyline>
            <polyline id="Fill-109" fill="#FFFFFE" points="810.997954 264 810 264.346091 811.001753 265 812 264.654236 810.997954 264"></polyline>
            <polyline id="Fill-110" fill="#FFFFFE" points="812 262.657374 810.990714 262 810 262.342301 811.009576 263 812 262.657374"></polyline>
            <path d="M824,276 L813.262696,257.065454 L790.88471,244 C790.28269,244.428376 789.796819,245.313337 790.085621,245.830173 L799.603538,262.549357 C799.645044,262.625629 799.722825,262.694587 799.814907,262.75832 L822.304857,275.912932 L822.63377,275.302758 L822.549013,275.152304 L824,276" id="Fill-111" fill="#D8E0E1"></path>
            <path d="M813.918782,257 C813.294579,257.425609 812.789529,258.312237 813.088311,258.829148 L822.911405,275.494216 C823.141791,275.903509 824.239005,276.170816 825,275.873306 L813.918782,257" id="Fill-112" fill="#ADC1C7"></path>
            <path d="M828,255.287284 C825.648562,254.611096 822.402129,255.195898 821.076112,256.339023 C820.189271,257.000033 818.766112,258.82548 819.032742,259.183594 C819.129884,259.263032 819.253858,259.269813 819.393457,259.227834 C819.209023,259.80198 819.14347,260.256969 819.288843,260.340282 C819.435234,260.414875 819.625781,260.311865 819.820744,260.125219 C819.782023,260.598292 819.808856,260.93251 819.926717,260.95899 C821.386898,261.289333 820.445371,257.370095 822.704423,258.898459 C822.127008,259.812959 821.291794,260.931542 822.207167,261 C822.91467,260.938323 823.069553,260.172688 823.903749,259.138709 C824.556567,258.63173 827.976903,257.789241 827.976903,257.789241 L828,255.287284" id="Fill-113" fill="#E36730"></path>
            <path d="M869.982196,249.724229 C883.661545,273.22987 869.328046,277.513552 842.738726,263.568602 L841,266.506764 C880.415261,289.334288 888.755757,272.073407 874.498841,242.00503 C871.1196,241.802493 869.280181,247.773173 869.982196,249.724229" id="Fill-114" fill="#04243D"></path>
            <path d="M842,263.830134 C840.049323,262.877925 838.699964,262.270605 837.379125,262.147635 C836.161369,261.892374 835.243242,261.999211 833.859865,262.232244 C832.760312,262.425482 831.619525,263.044274 831.83222,263.620404 C831.316116,263.954179 830.822692,264.331334 830.39902,264.72032 C829.525218,265.618394 830.239928,265.96866 831.074558,265.525897 C831.203412,265.457422 831.367658,265.360982 831.547366,265.254862 C831.120602,265.850351 831.050505,266.30853 831.342231,266.500334 C831.89029,266.860281 832.426666,265.961849 833.575356,265.029716 C833.725514,264.907822 833.913812,264.86982 834.125133,264.870178 C833.664351,265.202161 833.213878,265.594732 832.81254,266.042514 C832.132192,266.85813 832.867518,267.253927 833.543057,266.824429 C834.019988,266.521128 834.95564,265.767893 836.071,265.362774 C837.466058,266.004153 837.610719,266.552319 840.316652,266.835543 L842,263.830134" id="Fill-115" fill="#E36931"></path>
            <path d="M869.704817,250.047924 C883.401209,273.457388 869.050224,277.723198 842.428467,263.835306 L842,264.555741 C851.57324,270.086871 868.689559,277.337337 875.410493,269.6838 C879.258532,265.266881 875.574141,253.988799 870.180497,246 C869.582702,247.54723 869.394205,249.188773 869.704817,250.047924" id="Fill-116" fill="#031727"></path>
        </g>
    </g>
</svg>