<?xml version="1.0" encoding="UTF-8"?>
<svg width="80px" height="200px" viewBox="0 0 80 200" version="1.1" xmlns="http://www.w3.org/2000/svg" xmlns:xlink="http://www.w3.org/1999/xlink">
    <!-- Generator: Sketch 46.2 (44496) - http://www.bohemiancoding.com/sketch -->
    <title>Guy Peeking </title>
    <desc>Created with Sketch.</desc>
    <defs></defs>
    <g id="Upated-Design" stroke="none" stroke-width="1" fill="none" fill-rule="evenodd">
        <g id="Guy-Peeking-">
            <g id="Group-14" transform="translate(0.000000, 113.500000) rotate(25.000000) translate(-0.000000, -113.500000) translate(-65.000000, 19.000000)">
                <path d="M112.614144,57 C135.012556,105.679966 93.4235403,141.464326 66,85.6961692 L73.7473595,58.2253039 C83.6376322,116.659712 119.518462,108.119979 106.469751,58.2253039 L112.614144,57" id="Fill-4" fill="#12E1B7" transform="translate(92.500000, 85.500000) rotate(28.000000) translate(-92.500000, -85.500000) "></path>
                <g id="Group-4" transform="translate(110.000000, 58.000000)" fill="#FF5E54">
                    <path d="M13.4346594,12.5840048 C9.19823765,13.7090273 8.82402878,12.6098957 7.70266001,8.57954084 C6.58129124,4.54856954 6.20708236,1.61734634 11.2541852,0.334512378 C16.861658,-0.947705132 18.1704457,1.61734634 17.9830268,5.28152945 C17.7962368,8.94571257 17.8578712,12.0082398 13.4346594,12.5840048" id="Fill-16"></path>
                    <path d="M4.0685196,6.45365628 C7.54606097,3.49210826 9.47788395,5.34315362 8.89807706,9.4152043 C7.93216557,11.4518525 7.15930637,13.3028978 6.96625407,14.7833604 C5.42118569,16.2644458 0.977732831,9.78578707 4.0685196,6.45365628" id="Fill-17" transform="translate(6.000000, 10.000000) rotate(-41.000000) translate(-6.000000, -10.000000) "></path>
                </g>
                <polyline id="Fill-18" fill="#FF5E54" points="76.2201893 14.7380922 98 30.2002981 83.4940333 31.6667884 91.3874711 64.6827214 43 67 47.0955459 6.57848547 72.6059961 4 76.2201893 14.7380922"></polyline>
                <path d="M82,56.9113038 L81.8774264,55.6724231 C76.233985,56.2551225 68.6356839,53.8070117 65.0311348,48 L64,48.6664946 C67.8692829,54.9002175 75.9837832,57.5326779 82,56.9113038" id="Fill-20" fill="#222B24"></path>
                <path d="M51.7310957,23.6508339 C49.1578309,23.9063881 47.2819518,26.1612057 47.5429985,28.6864282 C47.6779357,30.0000884 48.3709075,31.1188343 49.3608672,31.8626024 L45.3499539,42 L45,3.87291532 L84,0 L76.7222195,13.7782721 L56.3088713,14.299281 L52.6094485,23.6508339 C52.3219188,23.6260829 52.0287142,23.6211327 51.7310957,23.6508339" id="Fill-21" fill="#093448"></path>
                <path d="M92.5178462,65 C105.190502,86.992304 97.0802534,175.429907 86.9421289,189 L41.3224525,189 C40.3091423,152.502081 41.8297354,95.8829031 43.8569836,65 L92.5178462,65" id="Fill-22" fill="#12E1B7"></path>
                <polyline id="Fill-26" fill="#FFFFFE" points="88.4056976 68 73 68 80.1892408 78.1096631 73 146.856875 83.7841792 160 92 149.384447 85.8379754 79.1208172 88.4056976 68"></polyline>
                <path d="M43.0179235,65 C3.04499805,74.1927242 -33.2735346,145.334622 52,151 L51.2370292,143.252213 C16.3083271,141.601035 -1.68267354,104.910135 46.1185068,87.8396291 L43.0179235,65" id="Fill-38" fill="#12E1B7"></path>
                <circle id="Oval-3" fill="#04243D" cx="73" cy="26" r="2"></circle>
            </g>
        </g>
    </g>
</svg>