<?xml version="1.0" encoding="UTF-8"?>
<svg width="411px" height="258px" viewBox="0 0 411 258" version="1.1" xmlns="http://www.w3.org/2000/svg" xmlns:xlink="http://www.w3.org/1999/xlink">
    <!-- Generator: Sketch 46.2 (44496) - http://www.bohemiancoding.com/sketch -->
    <title>lady-raft - light</title>
    <desc>Created with Sketch.</desc>
    <defs></defs>
    <g id="Upated-Design" stroke="none" stroke-width="1" fill="none" fill-rule="evenodd">
        <g id="lady-raft---light">
            <g id="lady-raft">
                <path d="M328.240846,137 C328.056705,137 327.872212,136.93333 327.726448,136.798578 C315.961847,125.921775 297.109754,118.007043 274.642794,114.511961 C274.228389,114.44776 273.94496,114.059026 274.00904,113.643835 C274.073823,113.228644 274.463583,112.944324 274.875875,113.009231 C297.637179,116.549818 316.771997,124.601065 328.755596,135.680702 C329.063671,135.965374 329.083036,136.44653 328.799254,136.755189 C328.649266,136.917808 328.445408,137 328.240846,137" id="Fill-6" fill="#FFFFFE"></path>
                <path d="M186.765716,126 C186.486589,126 186.217748,125.845541 186.082973,125.57774 C185.891805,125.198027 186.042186,124.733934 186.418847,124.541575 C201.881463,116.629827 222.048796,111.821209 243.206018,111.001002 C243.633398,110.979191 243.983104,111.316356 243.999419,111.741477 C244.015734,112.166955 243.686598,112.525214 243.264894,112.541662 C222.323312,113.353288 202.381195,118.102911 187.110811,125.915977 C187.000154,125.973184 186.882048,126 186.765716,126" id="Fill-7" fill="#FFFFFE"></path>
                <path d="M234.24489,209 C234.222796,209 234.201053,208.998945 234.17896,208.997188 C212.917931,207.154177 193.447533,201.259918 179.354641,192.399898 C179.000793,192.17809 178.893832,191.710219 179.115469,191.355537 C179.337808,191.000855 179.804227,190.893291 180.158075,191.116153 C194.051424,199.850329 213.28265,205.664443 234.309066,207.486714 C234.724987,207.52292 235.033245,207.890257 234.997123,208.307157 C234.963106,208.701912 234.632755,209 234.24489,209" id="Fill-8" fill="#FFFFFE"></path>
                <path d="M285.760646,214 C285.410925,214 285.095789,213.759574 285.017798,213.407159 C284.92781,212.9998 285.187895,212.597341 285.598313,212.50845 C300.881559,209.187283 314.50231,203.746728 324.987926,196.775077 C335.528948,189.76598 342.62711,181.379771 345.514863,172.522859 C345.644023,172.125999 346.07244,171.908671 346.472977,172.036758 C346.872809,172.164845 347.092311,172.590402 346.962798,172.986913 C343.968823,182.169642 336.663158,190.828824 325.835231,198.028652 C315.192928,205.104592 301.392201,210.621439 285.92439,213.982502 C285.868985,213.994401 285.814286,214 285.760646,214" id="Fill-9" fill="#FFFFFE"></path>
                <path d="M325.241121,130 C325.096261,130 324.949995,129.958833 324.820254,129.873009 C310.536419,120.392284 290.597417,113.867243 268.676082,111.499765 C268.260137,111.455109 267.959166,111.083904 268.004522,110.670834 C268.049879,110.257415 268.425742,109.961219 268.84028,110.004131 C290.99965,112.397425 311.180203,119.009337 325.663396,128.622635 C326.011482,128.853591 326.104656,129.320737 325.871896,129.665776 C325.725629,129.882777 325.485485,130 325.241121,130" id="Fill-10" fill="#FFFFFE"></path>
                <path d="M152.760712,153 C152.672857,153 152.583591,152.984971 152.496443,152.952815 C152.102684,152.808114 151.901572,152.37471 152.047643,151.984297 C157.41242,137.646667 173.427364,124.911234 195.986595,117.043206 C196.38247,116.904447 196.817156,117.111013 196.956524,117.503872 C197.096245,117.896382 196.888075,118.326641 196.491494,118.464701 C174.360599,126.183834 158.681196,138.592117 153.474134,152.507877 C153.360523,152.812308 153.069791,153 152.760712,153" id="Fill-11" fill="#FFFFFE"></path>
                <path d="M102.760712,123 C102.672857,123 102.583591,122.984971 102.496443,122.952815 C102.102684,122.808114 101.901572,122.37471 102.047643,121.984297 C107.41242,107.646667 123.427364,94.911234 145.986595,87.0432059 C146.38247,86.9044467 146.817156,87.1110126 146.956524,87.5038722 C147.096245,87.8963824 146.888075,88.3266406 146.491494,88.4647007 C124.360599,96.1838336 108.681196,108.592117 103.474134,122.507877 C103.360523,122.812308 103.069791,123 102.760712,123" id="Fill-11" fill="#FFFFFE" opacity="0.715070199"></path>
                <path d="M67.4733319,102 C67.4186668,102 67.3631236,101.990815 67.3088976,101.971165 C67.0638926,101.882736 66.9387556,101.617878 67.0296446,101.379293 C70.367728,92.6174078 80.332582,84.834643 94.3694368,80.0264036 C94.6157591,79.9416063 94.8862305,80.067841 94.9729483,80.3079219 C95.0598855,80.5477892 94.9303578,80.8107248 94.6835965,80.8950949 C80.9132615,85.6123428 71.1571885,93.1951826 67.9172389,101.699258 C67.8465475,101.885299 67.6656477,102 67.4733319,102" id="Fill-11" fill="#FFFFFE" opacity="0.715070199"></path>
                <path d="M214.243353,213 C214.191719,213 214.140085,212.994889 214.087748,212.984327 C194.634344,209.041769 177.651297,201.693642 166.266509,192.293994 C165.947923,192.030952 165.909637,191.567563 166.180452,191.258523 C166.452321,190.949484 166.929673,190.912344 167.248259,191.175045 C178.443371,200.418299 195.187918,207.652964 214.397202,211.546457 C214.806762,211.629254 215.069498,212.018364 214.983793,212.415652 C214.908976,212.762172 214.594254,213 214.243353,213" id="Fill-12" fill="#FFFFFE"></path>
                <path d="M272.764904,223 C272.383171,223 272.053283,222.72189 272.005699,222.342396 C271.954565,221.931654 272.253204,221.55841 272.672933,221.508065 C295.864882,218.739463 316.925521,211.699212 331.975023,201.685509 C339.447041,196.713551 345.264293,191.159332 349.266273,185.176664 C353.381884,179.023867 355.468808,172.563446 355.468808,165.974561 C355.468808,162.618836 354.918758,159.256168 353.834282,155.979953 C353.70396,155.586571 353.924477,155.164372 354.326806,155.037295 C354.729489,154.908135 355.160936,155.125485 355.290903,155.518867 C356.425093,158.944379 357,162.462247 357,165.974561 C357,172.859264 354.829272,179.595711 350.547829,185.996065 C346.435059,192.144697 340.476122,197.839533 332.836496,202.922943 C317.588848,213.068931 296.288517,220.197024 272.85865,222.994445 C272.827046,222.998264 272.795442,223 272.764904,223" id="Fill-13" fill="#FFFFFE"></path>
                <path d="M322.005699,252.347817 C321.954565,251.937042 322.253204,251.563768 322.672933,251.513419 C345.864882,248.744594 366.925521,241.703776 381.975023,231.689267 C389.447041,226.716909 395.264293,221.162243 399.266273,215.179094 C403.381884,209.025801 405.468808,202.56486 405.468808,195.975444 C405.468808,192.61945 404.918758,189.256511 403.834282,185.980032 C403.70396,185.586619 403.924477,185.164385 404.326806,185.037298 C404.729489,184.908128 405.160936,185.125495 405.290903,185.518908 C406.425093,188.944696 407,192.462848 407,195.975444 C407,202.860702 404.829272,209.597691 400.547829,215.99856 C396.435059,222.147687 390.476122,227.842981 382.836496,232.926801 C367.588848,243.073605 346.288517,250.202272 322.85865,252.999918 C322.383171,253.005474 322.053283,252.727341 322.005699,252.347817 Z" id="Fill-13" fill="#FFFFFE" opacity="0.715070199" transform="translate(364.500000, 219.000000) rotate(-7.000000) translate(-364.500000, -219.000000) "></path>
                <path d="M335.240567,133 C335.081896,133 334.921466,132.950802 334.784959,132.848569 C316.75308,119.364569 289.030291,110.855815 258.724786,109.503751 C258.306471,109.485258 257.982443,109.133547 258.000738,108.718333 C258.019736,108.303118 258.382112,107.984206 258.792687,108.000605 C289.396889,109.366277 317.427872,117.984941 335.697935,131.64689 C336.032516,131.897065 336.099362,132.368804 335.847107,132.700627 C335.697935,132.89672 335.47101,133 335.240567,133" id="Fill-14" fill="#FFFFFE"></path>
                <path d="M165.76282,131 C165.525627,131 165.291969,130.890918 165.143149,130.686038 C164.897472,130.347603 164.975947,129.87666 165.317774,129.634022 C183.931245,116.41826 211.95644,108.168898 242.20828,107.000806 C242.625754,106.981577 242.983135,107.308824 242.999395,107.724876 C243.016009,108.140928 242.688322,108.49125 242.267667,108.507333 C212.30675,109.664237 184.583792,117.81081 166.206453,130.858752 C166.072126,130.954199 165.916589,131 165.76282,131" id="Fill-15" fill="#FFFFFE"></path>
                <path d="M208.238849,220 C208.181251,220 208.122946,219.99378 208.064641,219.980648 C193.125537,216.569425 179.581509,211.243343 168.897242,204.577792 C158.079405,197.828956 150.186348,189.696763 146.071442,181.060022 C145.893701,180.687141 146.059075,180.243762 146.440353,180.070281 C146.821631,179.895763 147.274641,180.057494 147.452736,180.431066 C155.546856,197.419789 178.335199,211.662186 208.41129,218.529556 C208.820837,218.622863 209.075611,219.023736 208.97985,219.424263 C208.89787,219.768116 208.584791,220 208.238849,220" id="Fill-16" fill="#FFFFFE"></path>
                <path d="M168.238849,250 C168.181251,250 168.122946,249.99378 168.064641,249.980648 C153.125537,246.569425 139.581509,241.243343 128.897242,234.577792 C118.079405,227.828956 110.186348,219.696763 106.071442,211.060022 C105.893701,210.687141 106.059075,210.243762 106.440353,210.070281 C106.821631,209.895763 107.274641,210.057494 107.452736,210.431066 C115.546856,227.419789 138.335199,241.662186 168.41129,248.529556 C168.820837,248.622863 169.075611,249.023736 168.97985,249.424263 C168.89787,249.768116 168.584791,250 168.238849,250" id="Fill-16" fill="#FFFFFE" opacity="0.715070199"></path>
                <path d="M68.2388487,230 C68.1812506,230 68.1229458,229.99378 68.064641,229.980648 C53.1255374,226.569425 39.5815087,221.243343 28.8972422,214.577792 C18.0794046,207.828956 10.1863479,199.696763 6.0714424,191.060022 C5.8937011,190.687141 6.05907472,190.243762 6.44035278,190.070281 C6.82163085,189.895763 7.27464149,190.057494 7.45273616,190.431066 C15.5468561,207.419789 38.3351994,221.662186 68.4112896,228.529556 C68.8208366,228.622863 69.075611,229.023736 68.9798497,229.424263 C68.8978696,229.768116 68.5847905,230 68.2388487,230" id="Fill-16" fill="#FFFFFE" opacity="0.715070199" transform="translate(37.500000, 210.000000) rotate(-330.000000) translate(-37.500000, -210.000000) "></path>
                <path d="M302.758424,233 C302.424643,233 302.118999,232.781336 302.026849,232.44848 C301.916761,232.049679 302.155226,231.638382 302.558999,231.529744 C322.376255,226.197809 339.120541,217.954169 350.982616,207.688406 C363.085971,197.214739 369.483036,185.104908 369.483036,172.668817 C369.483036,169.077865 368.948071,165.475459 367.892211,161.961213 C367.77333,161.564841 368.002299,161.148338 368.403962,161.031023 C368.803867,160.913708 369.226985,161.139314 369.346569,161.535686 C370.443581,165.188072 371,168.933824 371,172.668817 C371,185.548137 364.42391,198.047051 351.982554,208.814006 C339.948488,219.227974 322.996336,227.582682 302.958201,232.973621 C302.891022,232.99167 302.824196,233 302.758424,233" id="Fill-17" fill="#FFFFFE"></path>
                <path d="M336.238507,126 C336.10974,126 335.978855,125.968047 335.859613,125.900704 C316.388893,114.977495 290.412411,108.080398 262.715735,106.48033 C262.296271,106.455935 261.976645,106.105136 262.00134,105.696616 C262.026388,105.288438 262.384468,104.978182 262.805696,105.001202 C290.733448,106.615014 316.94771,113.581515 336.618813,124.617076 C336.98289,124.821165 337.108129,125.274351 336.898221,125.628586 C336.757458,125.86669 336.501687,126 336.238507,126" id="Fill-18" fill="#FFFFFE"></path>
                <path d="M366.238507,106 C366.10974,106 365.978855,105.968047 365.859613,105.900704 C346.388893,94.9774952 320.412411,88.0803984 292.715735,86.4803297 C292.296271,86.4559353 291.976645,86.1051365 292.00134,85.6966156 C292.026388,85.2884383 292.384468,84.9781823 292.805696,85.0012024 C320.733448,86.6150145 346.94771,93.5815151 366.618813,104.617076 C366.98289,104.821165 367.108129,105.274351 366.898221,105.628586 C366.757458,105.86669 366.501687,106 366.238507,106" id="Fill-18" fill="#FFFFFE" opacity="0.715070199"></path>
                <path d="M180.760068,118 C180.456333,118 180.169511,117.823054 180.052175,117.533691 C179.899603,117.157043 180.093049,116.732508 180.483817,116.585449 C198.985582,109.624093 220.679032,105.61784 243.218852,105.000397 C243.637457,104.987151 243.987704,105.30742 243.999684,105.711578 C244.011664,106.115735 243.681502,106.452986 243.26184,106.464193 C220.894677,107.077222 199.377407,111.048833 181.036319,117.949395 C180.94541,117.983698 180.852034,118 180.760068,118" id="Fill-19" fill="#FFFFFE"></path>
                <path d="M180.760068,88 C180.456333,88 180.169511,87.8230538 180.052175,87.5336907 C179.899603,87.1570432 180.093049,86.7325081 180.483817,86.5854491 C198.985582,79.6240929 220.679032,75.6178403 243.218852,75.0003965 C243.637457,74.987151 243.987704,75.3074203 243.999684,75.7115777 C244.011664,76.115735 243.681502,76.4529857 243.26184,76.4641934 C220.894677,77.0772221 199.377407,81.0488326 181.036319,87.9493954 C180.94541,87.9836979 180.852034,88 180.760068,88" id="Fill-19" fill="#FFFFFE" opacity="0.715070199"></path>
                <path d="M195.445039,6.99969337 C195.26111,6.99283475 195.091166,6.87193861 195.026231,6.68217704 C194.941805,6.43517874 195.067925,6.16502815 195.307666,6.07875876 C206.65872,1.99509698 219.880027,-0.10562311 233.542196,0.00408744048 C233.795964,0.0049749487 234.001286,0.219980829 233.999994,0.481593242 C233.998702,0.743205655 233.791639,0.953828005 233.537273,0.951598936 C219.979751,0.842932147 206.865864,2.92522983 195.613394,6.97320874 C195.557618,6.99333705 195.50073,7.00177006 195.445039,6.99969337 Z" id="Fill-19" fill="#FFFFFE" opacity="0.715070199"></path>
                <path d="M266.760097,231 C266.367722,231 266.034627,230.705424 266.002518,230.31748 C265.968643,229.908175 266.280567,229.549861 266.699053,229.516441 C290.219304,227.650107 311.660533,221.841971 328.703779,212.71943 C345.637287,203.655458 356.636128,192.178724 360.510475,179.529888 C360.630446,179.136776 361.055283,178.913863 361.457185,179.031349 C361.859792,179.148834 362.088442,179.562618 361.967766,179.956075 C357.976624,192.986653 346.726903,204.766233 329.434894,214.022108 C312.205694,223.24422 290.554516,229.114372 266.822552,230.997588 C266.801381,230.998966 266.780916,231 266.760097,231" id="Fill-20" fill="#FFFFFE"></path>
                <path d="M340.235977,132 C340.08093,132 339.924113,131.953093 339.789243,131.856128 C322.216867,119.272771 296.968944,110.980714 268.69583,108.506889 C268.275999,108.470484 267.96555,108.103978 268.003073,107.688815 C268.039534,107.272952 268.409099,106.963855 268.8307,107.003411 C297.373908,109.50069 322.892278,117.892862 340.684481,130.633743 C341.025727,130.87808 341.102189,131.350302 340.85475,131.687753 C340.705721,131.891484 340.472442,132 340.235977,132" id="Fill-21" fill="#FFFFFE"></path>
                <path d="M237.237383,231 C237.220035,231 237.202334,230.999308 237.184986,230.998271 C204.855282,228.852063 175.73065,219.129113 157.278737,204.321802 C156.953025,204.060356 156.905939,203.590722 157.173589,203.27256 C157.440885,202.953707 157.921663,202.908404 158.247729,203.169504 C176.459607,217.784189 205.268794,227.385061 237.288364,229.510174 C237.708957,229.538186 238.02688,229.894043 237.998203,230.304886 C237.970942,230.698438 237.635318,231 237.237383,231" id="Fill-22" fill="#FFFFFE"></path>
                <path d="M179.759654,192 C166.066597,183.38217 158.338859,172.377919 158,161.013671 L158.451696,161 C158.785664,172.208261 166.438294,183.081063 180,191.615817 L179.759654,192" id="Fill-23" fill="#FFFFFE"></path>
                <path d="M197.15226,118 L197,117.564533 C212.235582,112.17452 229.869348,109.212919 247.995031,109 L248,109.461502 C229.924361,109.673707 212.341348,112.626035 197.15226,118" id="Fill-24" fill="#FFFFFE"></path>
                <path d="M249.500178,138.518297 C267.952634,138.518297 283.447049,143.400858 287.786126,150 C288.577118,148.797499 289,147.53826 289,146.240851 C289,137.823687 271.315418,131 249.500178,131 C227.684582,131 210,137.823687 210,146.240851 C210,147.53826 210.423238,148.797499 211.213874,150 C215.552951,143.400858 231.047366,138.518297 249.500178,138.518297" id="Fill-25" fill="#D8E0E1"></path>
                <path d="M249.5,111 C207.802623,111 174,129.804222 174,153 C174,176.196126 207.802623,195 249.5,195 C291.197377,195 325,176.196126 325,153 C325,129.804222 291.197377,111 249.5,111 Z M288.711043,146.608046 C288.711043,155.117904 271.152748,162.016389 249.493291,162.016389 C227.833834,162.016389 210.275185,155.117904 210.275185,146.608046 C210.275185,138.098187 227.833834,131.199702 249.493291,131.199702 C271.152748,131.199702 288.711043,138.098187 288.711043,146.608046 L288.711043,146.608046 Z" id="Fill-26" fill="#FFFFFE"></path>
                <path d="M324.645465,149 C324.645818,149.053244 324.648997,149.106144 324.648997,149.159388 C324.648997,171.853911 290.937126,190.317107 249.5,190.317107 C208.062521,190.317107 174.351003,171.853911 174.351003,149.159388 C174.351003,149.106144 174.354182,149.053244 174.354888,149 C174.122533,150.324566 174,151.666994 174,153.025223 C174,153.08362 174.003531,153.141329 174.004237,153.199725 C177.700721,174.381784 210.146649,191 249.5,191 C288.852998,191 321.298926,174.382128 324.995763,153.200069 C324.996116,153.141672 325,153.08362 325,153.025223 C325,151.667337 324.877467,150.324909 324.645465,149" id="Fill-27" fill="#9B9B9B"></path>
                <path d="M309.146033,127.387643 C300.154341,125.694899 286.72344,129.659038 280,137.070541 C285.323004,139.68242 288.509848,142.981146 288.509848,146.57127 C288.509848,148.643214 287.445318,150.618025 285.52682,152.420692 C295.657253,150.862068 315.781058,156.818301 320.575703,167 C323.436938,162.602737 325,157.865334 325,152.926752 C325,143.306766 319.082947,134.447945 309.146033,127.387643" id="Fill-28" fill="#80221C"></path>
                <path d="M232,112.1869 C233.402792,117.502475 234.974103,124.92645 235.97922,132 C240.311694,131.356293 245.009055,131.000361 249.921825,131.000361 C254.512012,131.000361 258.914643,131.311199 263.007383,131.876766 C264.020609,124.788758 265.597913,117.363751 267,112.071239 C261.514691,111.370734 255.800226,111 249.928523,111 C243.749751,111 237.7469,111.413074 232,112.1869" id="Fill-29" fill="#80221C"></path>
                <path d="M174,152.777454 C174,157.400465 175.371798,161.846474 177.899906,166 C183.486392,155.972421 203.984844,150.335861 213.355041,152.483597 C211.308963,150.635561 210.170611,148.598838 210.170611,146.45832 C210.170611,143.026892 213.084977,139.861138 218,137.314031 C211.696982,130.062459 198.9744,126.019945 189.971095,127.20431 C179.96535,134.253448 174,143.131031 174,152.777454" id="Fill-30" fill="#80221C"></path>
                <path d="M275.988742,192.31498 C276.232544,179.65342 272.497304,164.361228 266.659841,160.138602 C261.459308,161.143906 255.616891,161.709191 249.439732,161.709191 C242.987985,161.709191 236.905658,161.090219 231.534569,160 C225.616429,164.001213 221.802987,179.361127 222.007867,192.124095 C230.514774,193.979959 239.767597,195 249.446455,195 C258.786679,195 267.729176,194.049436 275.988742,192.31498" id="Fill-31" fill="#80221C"></path>
                <path d="M287.795483,150 C288.580378,148.816613 289,147.57739 289,146.300604 C289,142.785975 285.832539,139.556617 280.541909,137 C278.906123,138.775927 277.674431,140.755232 277,142.903738 C282.167108,144.810626 285.974413,147.252863 287.795483,150" id="Fill-32" fill="#254D67"></path>
                <path d="M262.160399,138.892835 C262.343886,136.655483 262.63514,134.266069 263,131.833723 C258.911524,131.295604 254.513481,131 249.928077,131 C245.020427,131 240.328311,131.338536 236,131.951374 C236.362395,134.382082 236.650832,136.767892 236.830796,139 C240.925611,138.459588 245.333868,138.164967 249.928077,138.164967 C254.201448,138.164967 258.311055,138.422228 262.160399,138.892835" id="Fill-33" fill="#254D67"></path>
                <path d="M210,146.214076 C210,147.520726 210.411817,148.788934 211.181117,150 C212.875794,147.331984 216.322941,144.94379 221,143.039054 C220.395426,140.84549 219.240609,138.823006 217.695086,137 C212.864374,139.566546 210,142.75646 210,146.214076" id="Fill-34" fill="#254D67"></path>
                <path d="M325,151 C325.012,151.151 325.0195,151.3025 325.0295,151.454 C325.0195,151.3025 325.012,151.151 325,151" id="Fill-35" fill="#254D67"></path>
                <path d="M325,149 C325.0355,149.166419 325.069,149.332838 325.1005,149.5 C325.069,149.332838 325.0355,149.166419 325,149" id="Fill-36" fill="#254D67"></path>
                <path d="M174,149.5 C174.0325,149.333211 174.0655,149.166422 174.102,149 C174.066,149.166422 174.0325,149.333211 174,149.5" id="Fill-37" fill="#254D67"></path>
                <path d="M174,151.4445 C174.01,151.2965 174.017,151.148 174.029,151 C174.017,151.148 174.01,151.2965 174,151.4445" id="Fill-38" fill="#254D67"></path>
                <path d="M179,164.43519 C175.98221,159.680106 174.322685,154.511936 174.322685,149.109991 C174.322685,149.07321 174.323984,149.036782 174.324958,149 C174.315868,149.058709 174.303207,149.116357 174.294442,149.175066 C174.270744,149.335632 174.249318,149.496552 174.228217,149.657471 C174.165563,150.144474 174.111998,150.633245 174.075964,151.124492 C174.068173,151.229178 174.063628,151.334218 174.057135,151.438904 C174.023374,151.987091 174,152.537047 174,153.090186 C174,153.155615 174.005843,153.219629 174.006493,153.285057 C174.647319,157.383731 176.222763,161.31618 178.597455,165 C178.72601,164.809726 178.862031,164.622281 179,164.43519" id="Fill-41" fill="#254D67"></path>
                <path d="M325.937492,151.361426 C325.930266,151.258222 325.924846,151.155019 325.916175,151.052155 C325.87643,150.581778 325.818258,150.114465 325.748886,149.648515 C325.726123,149.495242 325.701915,149.34265 325.676262,149.190059 C325.665422,149.126365 325.649886,149.063693 325.638685,149 C325.639407,149.03372 325.640853,149.06744 325.640853,149.101501 C325.640853,154.523619 323.633024,159.7005 320,164.437999 C320.144887,164.624651 320.292304,164.809941 320.425991,165 C323.322293,161.282278 325.237986,157.293773 325.992051,153.125428 C325.992774,153.061735 326,152.998723 326,152.934689 C326,152.407429 325.974347,151.883576 325.937492,151.361426" id="Fill-42" fill="#254D67"></path>
                <path d="M276,188.994595 C275.991492,188.733956 275.979085,188.471744 275.967741,188.210319 C267.712187,190.152727 258.77387,191.218477 249.443477,191.218477 C239.778793,191.218477 230.533835,190.076462 222.033677,188 C222.021979,188.260246 222.009217,188.520885 222,188.780737 C230.518591,190.857592 239.772058,192 249.443477,192 C258.779542,192 267.72743,190.936609 276,188.994595" id="Fill-43" fill="#9B9B9B"></path>
                <path d="M245.037819,120.40295 L245,123.134023 C253.660536,125.398977 274.647548,132.101314 285.537261,111.532374 C287.417504,107.93226 283.147532,105.014739 280.26473,108.713664 C273.819456,117.169795 269.624408,125.392693 245.037819,120.40295" id="Fill-44" fill="#04243D"></path>
                <polyline id="Fill-45" fill="#FF5E54" points="240 150.127172 207.696426 143 179.838454 181.429125 171 180.085714 180.055072 187 209.285196 154.000174 235.119756 161.354147 240 150.127172"></polyline>
                <polyline id="Fill-46" fill="#CD572A" points="221 145.313164 220.635626 156 219 155.628266 219.40456 145 221 145.313164"></polyline>
                <polyline id="Fill-47" fill="#FF5E54" points="239.543905 137.660594 212.794514 132 214.165736 181.94303 206 188 218.942272 186.131518 220.398367 143.677926 241 153.386725 239.543905 137.660594"></polyline>
                <polyline id="Fill-48" fill="#CA443C" points="220 142.954052 220.092129 141 239.525796 147.114661 240 153 220 142.954052"></polyline>
                <path d="M284.652701,104 C268.411284,122.13685 265.865958,144.79458 237.986743,137.711055 L236,161.693677 C277.091107,168.985296 282.148817,145.123624 292,105.802775 L284.652701,104" id="Fill-49" fill="#04243D"></path>
                <polyline id="Fill-50" fill="#04243D" points="171 180 179.893366 187 183 183.384666 179.944481 180.984656 179.680616 181.360064 171 180"></polyline>
                <polyline id="Fill-51" fill="#04243D" points="206 189 218.810711 186.991292 219 181 214.064651 181.774062 214.082729 182.488467 206 189"></polyline>
                <path d="M292,105.221844 L290.702113,105 C278.443548,138.725096 270.353801,163.222391 236.463202,155.476895 L236,160.692819 C276.843942,168.026122 282.559247,143.821619 292,105.221844" id="Fill-52" fill="#031626"></path>
                <path d="M299.684451,90.1657461 C295.385642,93.1552472 292.143754,96.3321284 291.688552,103.361969 L291.61636,105 L284.087398,104.386039 C285.281947,102.409968 288.097439,99.5114119 282.022633,93.957275 C278.743404,90.958851 275.944271,87.5482596 275.057695,83.5322865 L271,83.0051514 C273.80589,82.2799975 274.547371,79.3028511 275.422923,76.6098634 C277.003325,71.3858724 283.808232,65.1992421 295.40449,67.4910442 C306.279538,69.6404238 310.538872,82.5329262 299.684451,90.1657461" id="Fill-53" fill="#FF5E54"></path>
                <path d="M283.007901,83.7877099 C282.633274,83.6359554 282.278824,83.4055893 281.968765,83.1024222 C281.143172,82.2934067 280.817644,81.1337154 281.099455,80 L281.664086,80.1452605 C281.430364,81.0844977 281.688971,82.0069872 282.372649,82.6762108 C283.012609,83.3027107 283.881246,83.5529006 284.640253,83.3273196 C285.49712,83.0723447 286.134053,82.2294921 286.433351,80.9539341 L287,81.0909917 C286.649586,82.5818769 285.869729,83.5775094 284.80369,83.8946899 C284.220563,84.0683189 283.590019,84.0235445 283.007901,83.7877099" id="Fill-54" fill="#222B24"></path>
                <path d="M283.380788,93.7789714 C282.862227,93.5769431 282.383085,93.2417258 282,92.7923999 L282.509759,92.3778677 C283.167623,93.1508131 284.16992,93.5081039 285.065059,93.289614 C285.745886,93.1220053 286.215078,92.6521025 286.351703,92 L287,92.1298219 C286.814007,93.0217394 286.150785,93.6899293 285.226177,93.9173982 C284.618446,94.0663006 283.973976,94.0101816 283.380788,93.7789714" id="Fill-55" fill="#222B24"></path>
                <path d="M303.239086,96.2765541 C313.95857,88.0956471 316.301387,61.1053368 292.373792,62.0228347 C279.175895,62.5240475 277.852336,71.355835 274,69.1567638 C275.099913,76.8931925 287.49163,78.8155525 292.289969,76.0675836 C293.283519,77.1918318 293.888242,78.6415203 294.238326,80.2986552 C294.592989,80.2537548 294.957866,80.2506223 295.327321,80.3254561 C297.130924,80.6905757 298.293176,82.430898 297.924073,84.212988 C297.59829,85.7844991 296.189852,86.8600182 294.625391,86.8429631 C291.933193,96.5591824 291.783509,107.445594 303.761747,105.841713 C300.337683,105.353727 297.386972,100.742917 303.239086,96.2765541" id="Fill-56" fill="#04243D"></path>
                <polyline id="Fill-57" fill="#FFFFFE" points="292 106.641297 291.705953 103.317604 285.743685 103.625315 284.780219 102 283.290096 103.441602 282.971545 106.610035 268 132 285.719181 107.676834 292 106.641297"></polyline>
                <path d="M242.099261,139.366575 L222.144735,128.453346 L237.664883,123.709074 C238.376326,123.503054 238.374918,122.51676 238.374918,122 L219.000242,127.923239 C218.993205,128.382505 219.139575,128.952653 219.425278,129.140193 L219.424223,129.151828 L242.114039,142 L243,141.153676 L242.099261,139.366575" id="Fill-58" fill="#ADC1C7"></path>
                <polyline id="Fill-59" fill="#F2F1F0" points="241.551412 141 261 135.02202 238.269653 122 219 128.004648 241.551412 141"></polyline>
                <path d="M262,135 C262,135.503018 262.00144,136.463083 261.273338,136.663624 L242.725457,141.990954 C242.240056,142.091891 241.991234,141.327036 242.000236,140.749731 L262,135" id="Fill-60" fill="#ADC1C7"></path>
                <polyline id="Fill-61" fill="#D8E0E1" points="244.980067 133 251 131.11202 243.96443 127 238 128.895981 244.980067 133"></polyline>
                <polyline id="Fill-62" fill="#D8E0E1" points="241.775619 139 250 136.544902 231.150864 126 223 128.465226 241.775619 139"></polyline>
                <polyline id="Fill-63" fill="#FFFFFE" points="241 134.653897 239.998538 134 239 134.346103 240.001462 135 241 134.653897"></polyline>
                <polyline id="Fill-64" fill="#FFFFFE" points="238 132.653783 236.998684 132 236 132.346217 237.001316 133 238 132.653783"></polyline>
                <polyline id="Fill-65" fill="#FFFFFE" points="240 133.653997 238.998684 133 238 133.34633 239.001316 134 240 133.653997"></polyline>
                <polyline id="Fill-66" fill="#FFFFFE" points="237 131.653783 235.998538 131 235 131.346217 236.001462 132 237 131.653783"></polyline>
                <polyline id="Fill-67" fill="#FFFFFE" points="234 130.655139 232.99548 130 232 130.344535 233.004228 131 234 130.655139"></polyline>
                <polyline id="Fill-68" fill="#FFFFFE" points="235 131.653783 233.99883 131 233 131.346217 234.001463 132 235 131.653783"></polyline>
                <polyline id="Fill-69" fill="#FFFFFE" points="243.001609 134 244 133.653783 242.998684 133 242 133.346217 243.001609 134"></polyline>
                <polyline id="Fill-70" fill="#FFFFFE" points="232 129.650925 231.004857 129 230 129.349075 230.995143 130 232 129.650925"></polyline>
                <polyline id="Fill-71" fill="#FFFFFE" points="245.00117 135 246 134.653456 244.998537 134 244 134.346217 245.00117 135"></polyline>
                <polyline id="Fill-72" fill="#FFFFFE" points="244.998976 135 244 135.346431 245.001024 136 246 135.653569 244.998976 135"></polyline>
                <polyline id="Fill-73" fill="#FFFFFE" points="244 136.65367 242.998976 136 242 136.346003 243.001316 137 244 136.65367"></polyline>
                <polyline id="Fill-74" fill="#FFFFFE" points="243 135.653783 241.998538 135 241 135.346217 242.001462 136 243 135.653783"></polyline>
                <polyline id="Fill-75" fill="#FFFFFE" points="236 131.346217 237.000877 132 238 131.653783 236.99883 131 236 131.346217"></polyline>
                <polyline id="Fill-76" fill="#FFFFFE" points="238 132.346217 239.001024 133 240 132.653456 238.998976 132 238 132.346217"></polyline>
                <polyline id="Fill-77" fill="#FFFFFE" points="229.002046 129 230 128.654123 228.997662 128 228 128.345877 229.002046 129"></polyline>
                <polyline id="Fill-78" fill="#FFFFFE" points="239 133.346431 240.000877 134 241 133.653569 239.99883 133 239 133.346431"></polyline>
                <polyline id="Fill-79" fill="#FFFFFE" points="241 133.346431 242.00117 134 243 133.653897 241.99883 133 241 133.346431"></polyline>
                <polyline id="Fill-80" fill="#FFFFFE" points="246.001316 136 247 135.653997 245.998684 135 245 135.34633 246.001316 136"></polyline>
                <polyline id="Fill-81" fill="#FFFFFE" points="244 135.653456 242.99883 135 242 135.346217 243.000877 136 244 135.653456"></polyline>
                <polyline id="Fill-82" fill="#FFFFFE" points="232 128.34929 232.994851 129 234 128.65071 233.005149 128 232 128.34929"></polyline>
                <polyline id="Fill-83" fill="#FFFFFE" points="242.001316 133 243 132.653783 241.998684 132 241 132.346217 242.001316 133"></polyline>
                <polyline id="Fill-84" fill="#FFFFFE" points="230 128.345764 231.001899 129 232 128.653909 230.998101 128 230 128.345764"></polyline>
                <polyline id="Fill-85" fill="#FFFFFE" points="233 129.345075 234.004373 130 235 129.655251 233.995918 129 233 129.345075"></polyline>
                <polyline id="Fill-86" fill="#FFFFFE" points="235 130.346544 236.001024 131 237 130.653783 235.998976 130 235 130.346544"></polyline>
                <polyline id="Fill-87" fill="#FFFFFE" points="247 136.34633 248.001316 137 249 136.653997 247.998684 136 247 136.34633"></polyline>
                <polyline id="Fill-88" fill="#FFFFFE" points="236.998976 134 236 134.34633 237.001024 135 238 134.65367 236.998976 134"></polyline>
                <polyline id="Fill-89" fill="#FFFFFE" points="238.998976 135 238 135.346544 239.001024 136 240 135.653783 238.998976 135"></polyline>
                <polyline id="Fill-90" fill="#FFFFFE" points="239.998976 136 239 136.346431 240.001024 137 241 136.653569 239.998976 136"></polyline>
                <polyline id="Fill-91" fill="#FFFFFE" points="233.999123 132 233 132.346217 234.00117 133 235 132.653456 233.999123 132"></polyline>
                <polyline id="Fill-92" fill="#FFFFFE" points="232.999123 131 232 131.346217 233.00117 132 234 131.653456 232.999123 131"></polyline>
                <polyline id="Fill-93" fill="#FFFFFE" points="241.999123 136 241 136.34633 242.000877 137 243 136.65367 241.999123 136"></polyline>
                <polyline id="Fill-94" fill="#FFFFFE" points="230.995773 130 230 130.345075 231.004227 131 232 130.655251 230.995773 130"></polyline>
                <polyline id="Fill-95" fill="#FFFFFE" points="242 137.346217 243.001316 138 244 137.653783 242.998976 137 242 137.346217"></polyline>
                <polyline id="Fill-96" fill="#FFFFFE" points="240.001463 132 241 131.653783 239.99883 131 239 131.346217 240.001463 132"></polyline>
                <polyline id="Fill-97" fill="#FFFFFE" points="245 136.346431 246.001024 137 247 136.653569 245.998684 136 245 136.346431"></polyline>
                <polyline id="Fill-98" fill="#FFFFFE" points="244 137.346217 245.00117 138 246 137.653783 244.998538 137 244 137.346217"></polyline>
                <polyline id="Fill-99" fill="#FFFFFE" points="235.999123 133 235 133.346217 236.000877 134 237 133.653783 235.999123 133"></polyline>
                <polyline id="Fill-100" fill="#FFFFFE" points="236.00452 130 237 129.655139 235.99548 129 235 129.344861 236.00452 130"></polyline>
                <polyline id="Fill-101" fill="#FFFFFE" points="233.995143 129 235 128.650925 234.004857 128 233 128.348745 233.995143 129"></polyline>
                <polyline id="Fill-102" fill="#FFFFFE" points="239.001316 132 240 131.653783 238.998684 131 238 131.346217 239.001316 132"></polyline>
                <polyline id="Fill-103" fill="#FFFFFE" points="229.005001 129 228 129.34896 228.994704 130 230 129.65071 229.005001 129"></polyline>
                <polyline id="Fill-104" fill="#FFFFFE" points="237.001316 131 238 130.653783 236.998684 130 236 130.346217 237.001316 131"></polyline>
                <polyline id="Fill-105" fill="#FFFFFE" points="232 126.657374 230.99057 126 230 126.342626 231.00943 127 232 126.657374"></polyline>
                <polyline id="Fill-106" fill="#FFFFFE" points="233.002192 128 234 127.654123 232.997808 127 232 127.345877 233.002192 128"></polyline>
                <polyline id="Fill-107" fill="#FFFFFE" points="230 127.657161 228.991007 127 228 127.342515 229.009283 128 230 127.657161"></polyline>
                <polyline id="Fill-108" fill="#FFFFFE" points="226.990863 128 226 128.342515 227.009137 129 228 128.657161 226.990863 128"></polyline>
                <polyline id="Fill-109" fill="#FFFFFE" points="227.997954 129 227 129.346091 228.001753 130 229 129.654236 227.997954 129"></polyline>
                <polyline id="Fill-110" fill="#FFFFFE" points="229 127.657374 227.990714 127 227 127.342301 228.009576 128 229 127.657374"></polyline>
                <path d="M241,141 L230.262696,122.065454 L207.88471,109 C207.28269,109.428376 206.796819,110.313337 207.085621,110.830173 L216.603538,127.549357 C216.645044,127.625629 216.722825,127.694587 216.814907,127.75832 L239.304857,140.912932 L239.63377,140.302758 L239.549013,140.152304 L241,141" id="Fill-111" fill="#D8E0E1"></path>
                <path d="M230.918782,122 C230.294579,122.425609 229.789529,123.312237 230.088311,123.829148 L239.911405,140.494216 C240.141791,140.903509 241.239005,141.170816 242,140.873306 L230.918782,122" id="Fill-112" fill="#ADC1C7"></path>
                <path d="M245,120.287284 C242.648562,119.611096 239.402129,120.195898 238.076112,121.339023 C237.189271,122.000033 235.766112,123.82548 236.032742,124.183594 C236.129884,124.263032 236.253858,124.269813 236.393457,124.227834 C236.209023,124.80198 236.14347,125.256969 236.288843,125.340282 C236.435234,125.414875 236.625781,125.311865 236.820744,125.125219 C236.782023,125.598292 236.808856,125.93251 236.926717,125.95899 C238.386898,126.289333 237.445371,122.370095 239.704423,123.898459 C239.127008,124.812959 238.291794,125.931542 239.207167,126 C239.91467,125.938323 240.069553,125.172688 240.903749,124.138709 C241.556567,123.63173 244.976903,122.789241 244.976903,122.789241 L245,120.287284" id="Fill-113" fill="#E36730"></path>
                <path d="M286.982196,114.724229 C300.661545,138.22987 286.328046,142.513552 259.738726,128.568602 L258,131.506764 C297.415261,154.334288 305.755757,137.073407 291.498841,107.00503 C288.1196,106.802493 286.280181,112.773173 286.982196,114.724229" id="Fill-114" fill="#04243D"></path>
                <path d="M259,128.830134 C257.049323,127.877925 255.699964,127.270605 254.379125,127.147635 C253.161369,126.892374 252.243242,126.999211 250.859865,127.232244 C249.760312,127.425482 248.619525,128.044274 248.83222,128.620404 C248.316116,128.954179 247.822692,129.331334 247.39902,129.72032 C246.525218,130.618394 247.239928,130.96866 248.074558,130.525897 C248.203412,130.457422 248.367658,130.360982 248.547366,130.254862 C248.120602,130.850351 248.050505,131.30853 248.342231,131.500334 C248.89029,131.860281 249.426666,130.961849 250.575356,130.029716 C250.725514,129.907822 250.913812,129.86982 251.125133,129.870178 C250.664351,130.202161 250.213878,130.594732 249.81254,131.042514 C249.132192,131.85813 249.867518,132.253927 250.543057,131.824429 C251.019988,131.521128 251.95564,130.767893 253.071,130.362774 C254.466058,131.004153 254.610719,131.552319 257.316652,131.835543 L259,128.830134" id="Fill-115" fill="#E36931"></path>
                <path d="M286.704817,115.047924 C300.401209,138.457388 286.050224,142.723198 259.428467,128.835306 L259,129.555741 C268.57324,135.086871 285.689559,142.337337 292.410493,134.6838 C296.258532,130.266881 292.574141,118.988799 287.180497,111 C286.582702,112.54723 286.394205,114.188773 286.704817,115.047924" id="Fill-116" fill="#031727"></path>
            </g>
        </g>
    </g>
</svg>