<?xml version="1.0" encoding="UTF-8"?>
<svg width="169px" height="128px" viewBox="0 0 169 128" version="1.1" xmlns="http://www.w3.org/2000/svg" xmlns:xlink="http://www.w3.org/1999/xlink">
    <!-- Generator: Sketch 46.2 (44496) - http://www.bohemiancoding.com/sketch -->
    <title>Lady raft dark </title>
    <desc>Created with Sketch.</desc>
    <defs></defs>
    <g id="Upated-Design" stroke="none" stroke-width="1" fill="none" fill-rule="evenodd">
        <g id="Lady-raft-dark-">
            <g id="Group" transform="translate(1.000000, 1.000000)">
                <path d="M116.5685,97 C116.34797,97 116.138243,96.8720308 116.045762,96.6590962 C115.922719,96.3737066 116.056301,96.0434886 116.344545,95.9212532 C130.656066,89.8623921 138.863889,80.9853409 138.863889,71.5667009 C138.863889,68.6020369 138.052381,65.6647389 136.452024,62.8369055 C136.298681,62.5658505 136.396431,62.223383 136.669919,62.0716964 C136.944462,61.9200099 137.290143,62.0169642 137.44296,62.2874979 C139.139749,65.2855226 140,68.4073464 140,71.5667009 C140,81.4565596 131.540821,90.7102209 116.791928,96.9546504 C116.718682,96.9854047 116.643064,97 116.5685,97" id="Fill-3" fill="#FFFFFE"></path>
                <path d="M71.4418112,104 C71.4330018,104 71.4244515,103.999739 71.4156421,103.999216 C59.3182816,103.439551 47.8829205,101.048754 38.3459822,97.0848316 C38.0607135,96.9664158 37.9246863,96.6370474 38.0423175,96.3492421 C38.1596896,96.0616982 38.4864142,95.9236772 38.7716829,96.0428772 C48.1907308,99.9573947 59.4965421,102.319437 71.4669439,102.873351 C71.7750133,102.887467 72.013644,103.150961 71.9993935,103.462032 C71.9856613,103.764214 71.7384802,104 71.4418112,104" id="Fill-4" fill="#FFFFFE"></path>
                <path d="M112.556983,104 C112.323037,104 112.105359,103.852227 112.028152,103.618726 C111.931837,103.327557 112.090641,103.013733 112.382685,102.917706 C121.864964,99.8008351 129.787349,95.4314999 135.293072,90.2821101 C140.914734,85.024079 143.886306,79.0421162 143.886306,72.9829202 C143.886306,72.844158 143.884757,72.7051384 143.882175,72.5668911 C143.875461,72.2605331 144.119477,72.006951 144.426756,72.0002574 C144.430888,72 144.434761,72 144.438892,72 C144.740749,72 144.988897,72.2409673 144.995094,72.5434637 C144.998451,72.6896918 145,72.8359198 145,72.9829202 C145,79.356455 141.906807,85.6185166 136.054814,91.0915132 C130.431861,96.3508315 122.366424,100.804866 112.73128,103.972196 C112.673439,103.990989 112.614823,104 112.556983,104" id="Fill-5" fill="#04243D"></path>
                <path d="M135.434085,56 C135.296816,56 135.159285,55.9499972 135.050625,55.8489333 C126.280649,47.691331 112.227271,41.7552824 95.479174,39.1339708 C95.1702537,39.0858199 94.9589701,38.7942691 95.0067386,38.4828759 C95.055032,38.1714827 95.3455797,37.9582432 95.6529252,38.0069232 C112.620442,40.6623638 126.884579,46.7007991 135.817808,55.0105263 C136.047464,55.2240304 136.061899,55.5848973 135.850353,55.8163918 C135.738543,55.9383563 135.586577,56 135.434085,56" id="Fill-6" fill="#04243D"></path>
                <path d="M30.567686,47 C30.3607474,47 30.1614342,46.8867299 30.0615147,46.6903425 C29.9197867,46.4118867 30.0312759,46.0715519 30.3105247,45.9304886 C41.7741879,40.1285399 56.7258319,36.6022199 72.4113585,36.0007345 C72.7282086,35.9847403 72.9874735,36.2319944 72.9995691,36.5437495 C73.0116646,36.8557668 72.7676506,37.1184906 72.4550076,37.1305518 C56.9293522,37.7257444 42.1446791,41.2088015 30.8235326,46.9383831 C30.7414934,46.980335 30.6539323,47 30.567686,47" id="Fill-7" fill="#04243D"></path>
                <path d="M65.4336674,109 C65.4170973,109 65.4007901,108.999238 65.3842199,108.997969 C49.4384483,107.666906 34.8356501,103.409941 24.2659806,97.0110377 C24.0005948,96.850843 23.9203741,96.5129363 24.0866019,96.256777 C24.2533557,96.0006178 24.6031706,95.9229323 24.8685565,96.0838886 C35.2885683,102.391905 49.7119877,106.590986 65.4817999,107.907071 C65.79374,107.93322 66.0249335,108.198519 65.9978425,108.499614 C65.9723297,108.784715 65.7245661,109 65.4336674,109" id="Fill-8" fill="#04243D"></path>
                <path d="M103.56435,113 C103.30488,113 103.071069,112.822543 103.013205,112.562427 C102.94644,112.261757 103.139406,111.964704 103.44391,111.899094 C114.783092,109.447756 124.88881,105.432109 132.668462,100.286367 C140.489219,95.1129853 145.755598,88.9231644 147.898124,82.3859199 C147.993953,82.0929993 148.31181,81.9325904 148.608983,82.0271309 C148.905633,82.1216714 149.068489,82.4357732 148.972398,82.7284356 C146.751062,89.5061642 141.33073,95.897465 133.297107,101.211624 C125.401205,106.434342 115.161955,110.5063 103.685838,112.987085 C103.644731,112.995867 103.604148,113 103.56435,113" id="Fill-9" fill="#04243D"></path>
                <path d="M133.437383,51 C133.329987,51 133.221548,50.9691244 133.125361,50.9047567 C122.535621,43.794213 107.753257,38.900432 91.5012334,37.1248239 C91.1928602,37.0913317 90.9697262,36.8129281 91.0033527,36.5031256 C91.0369792,36.1930614 91.315636,35.9709141 91.6229665,36.003098 C108.051465,37.7980687 123.012909,42.7570025 133.750448,49.966976 C134.008512,50.1401933 134.07759,50.4905528 133.905026,50.7493321 C133.796587,50.9120831 133.618549,51 133.437383,51" id="Fill-10" fill="#04243D"></path>
                <path d="M4.5578555,68 C4.49342878,68 4.4279671,67.988728 4.36405786,67.9646112 C4.07530197,67.8560854 3.92781911,67.5310325 4.03493824,67.2382228 C7.96910797,56.4850005 19.7134003,46.9334255 36.2568363,41.0324044 C36.5471446,40.928335 36.8659146,41.0832594 36.9681176,41.3779042 C37.0705794,41.6722868 36.9179217,41.9949804 36.6270958,42.0985255 C20.3977724,47.8878752 8.89954364,57.1940877 5.08103151,67.6309077 C4.99771664,67.8592311 4.78451336,68 4.5578555,68" id="Fill-11" fill="#04243D"></path>
                <path d="M50.4440961,112 C50.4061609,112 50.3682256,111.996283 50.3297742,111.988601 C36.0374774,109.121287 23.5601368,103.777194 15.1958025,96.9410865 C14.9617394,96.7497836 14.9336106,96.4127732 15.1325771,96.188017 C15.3323178,95.9632608 15.6830252,95.9362504 15.9170883,96.1273055 C24.1420686,102.849672 36.4441845,108.111247 50.5571276,110.942878 C50.858029,111.003093 51.05106,111.286083 50.9880927,111.57502 C50.9331253,111.827034 50.7019009,112 50.4440961,112" id="Fill-12" fill="#04243D"></path>
                <path d="M94.5669285,120 C94.2839972,120 94.0394919,119.791417 94.0042242,119.506797 C93.9663245,119.198741 94.187669,118.918808 94.4987618,118.881049 C111.688089,116.804597 127.297739,111.524409 138.452076,104.014131 C143.99016,100.285163 148.30177,96.1194992 151.267943,91.6324983 C154.318338,87.0179 155.865116,82.1725847 155.865116,77.2309205 C155.865116,74.7141272 155.457432,72.192126 154.653644,69.734965 C154.557053,69.4399286 154.720495,69.1232788 155.018691,69.0279713 C155.317151,68.9311015 155.636929,69.0941136 155.733257,69.38915 C156.573892,71.9582842 157,74.5966856 157,77.2309205 C157,82.3944479 155.391108,87.4467834 152.217803,92.2470489 C149.169514,96.8585224 144.75289,101.129649 139.090579,104.942207 C127.789381,112.551698 112.002077,117.897768 94.6364112,119.995834 C94.6129871,119.998698 94.589563,120 94.5669285,120" id="Fill-13" fill="#04243D"></path>
                <path d="M140.435294,53 C140.317307,53 140.198013,52.9626098 140.096508,52.8849123 C126.688187,42.6370725 106.073806,36.1704191 83.5389432,35.1428507 C83.2278883,35.1287962 82.9869451,34.8614958 83.0005488,34.5459329 C83.0146758,34.23037 83.2841346,33.9879964 83.589434,34.0004599 C106.346405,35.0383702 127.189956,41.588555 140.775387,51.9716361 C141.024179,52.1617694 141.073885,52.5202913 140.88631,52.7724765 C140.775387,52.921507 140.606649,53 140.435294,53" id="Fill-14" fill="#04243D"></path>
                <path d="M14.5672253,51 C14.390851,51 14.2171051,50.9181881 14.106444,50.7645287 C13.9237612,50.5107022 13.9821146,50.1574952 14.2362934,49.9755162 C28.07708,40.0636949 48.9163271,33.8766732 71.4112853,33.0006045 C71.7217146,32.9861825 71.987459,33.2316181 71.9995502,33.5436569 C72.0119043,33.8556958 71.7682396,34.1184377 71.4554446,34.1304997 C49.1768145,34.9981774 28.5623066,41.1081072 14.8971058,50.8940641 C14.7972217,50.9656495 14.6815663,51 14.5672253,51" id="Fill-15" fill="#04243D"></path>
                <path d="M46.432157,118 C46.389187,118 46.3456897,117.995335 46.3021925,117.985486 C35.157147,115.427069 25.0528716,111.432507 17.0820696,106.433344 C9.01161932,101.371717 3.12314847,95.2725721 0.0532983009,88.7950167 C-0.0793023545,88.5153559 0.0440716151,88.1828214 0.328517156,88.0527104 C0.612962698,87.9218219 0.950923016,88.0431206 1.08378729,88.3232997 C7.1222577,101.064842 24.1230853,111.74664 46.5608033,116.897167 C46.8663384,116.967147 47.0564082,117.267802 46.9849673,117.568198 C46.9238075,117.826087 46.6902406,118 46.432157,118" id="Fill-16" fill="#04243D"></path>
                <path d="M116.560574,127 C116.313866,127 116.087956,126.839039 116.019845,126.59402 C115.938475,126.300458 116.114732,125.997698 116.413174,125.917728 C131.06071,121.992831 143.436922,115.924596 152.204543,108.367854 C161.1505,100.658072 165.878766,91.7438907 165.878766,82.5895456 C165.878766,79.9462061 165.483357,77.2944353 164.702938,74.7075599 C164.61507,74.4157859 164.784308,74.1091933 165.081189,74.0228364 C165.376771,73.9364794 165.68951,74.1025504 165.777899,74.3943244 C166.588733,77.0828864 167,79.8401761 167,82.5895456 C167,92.0701564 162.139412,101.270746 152.943627,109.196421 C144.048882,116.862259 131.519031,123.012252 116.708235,126.980582 C116.658582,126.993868 116.609188,127 116.560574,127" id="Fill-17" fill="#04243D"></path>
                <path d="M141.431419,48 C141.335272,48 141.237545,47.9756546 141.148511,47.9243462 C126.610374,39.6019011 107.214601,34.3469702 86.5344158,33.1278703 C86.2212154,33.109284 85.9825614,32.8420087 86.0010004,32.5307547 C86.0197029,32.2197625 86.2870691,31.983377 86.6015866,32.0009161 C107.454308,33.2304872 127.027623,38.5382972 141.71538,46.9463437 C141.987224,47.1018398 142.080737,47.4471249 141.924005,47.717018 C141.818902,47.8984301 141.627926,48 141.431419,48" id="Fill-18" fill="#04243D"></path>
                <path d="M25.5700509,42 C25.3422496,42 25.1271332,41.8638875 25.0391311,41.6413005 C24.9247019,41.3515717 25.0697865,41.0250062 25.3628627,40.911884 C39.2391864,35.5569945 55.5092738,32.4752618 72.4141392,32.000305 C72.7280928,31.9901162 72.9907778,32.2364771 72.999763,32.5473674 C73.0087482,32.8582577 72.7611266,33.1176813 72.4463802,33.1263026 C55.6710074,33.5978631 39.5330554,36.6529481 25.7772391,41.9610734 C25.7090572,41.9874599 25.6390255,42 25.5700509,42" id="Fill-19" fill="#04243D"></path>
                <path d="M89.5621551,126 C89.2719614,126 89.0256098,125.779068 89.0018619,125.48811 C88.9768092,125.181131 89.2075029,124.912396 89.5170081,124.887331 C106.912193,123.48758 122.769769,119.131479 135.37467,112.289572 C147.89841,105.491594 156.032969,96.8840427 158.898372,87.3974158 C158.9871,87.1025818 159.301303,86.9353972 159.598543,87.0235115 C159.896305,87.1116258 160.06541,87.4219638 159.97616,87.7170562 C157.024378,97.4899899 148.704272,106.324674 135.915391,113.266581 C123.172961,120.183165 107.160111,124.585779 89.608346,125.998191 C89.5926881,125.999225 89.5775521,126 89.5621551,126" id="Fill-20" fill="#04243D"></path>
                <path d="M144.434832,52 C144.32014,52 144.204138,51.9643506 144.104371,51.8906574 C131.105628,42.3273059 112.429082,36.0253428 91.5147235,34.1452358 C91.2041635,34.1175676 90.9745166,33.8390234 91.0022733,33.5234996 C91.0292443,33.2074437 91.302621,32.9725301 91.6144903,33.0025926 C112.728644,34.9005243 131.605247,41.278575 144.766603,50.9616446 C145.019031,51.1473408 145.075592,51.5062292 144.892555,51.762692 C144.782314,51.9175275 144.609752,52 144.434832,52" id="Fill-21" fill="#04243D"></path>
                <path d="M67.4350986,126 C67.4222485,126 67.4091361,125.999481 67.396286,125.998703 C43.448357,124.389047 21.8745559,117.096835 8.20647174,105.991352 C7.96520392,105.795267 7.93032499,105.443041 8.12858419,105.20442 C8.32658115,104.96528 8.68271343,104.931303 8.9242435,105.127128 C22.4145238,116.088141 43.7546623,123.288796 67.4728623,124.88263 C67.7844125,124.903639 68.0199108,125.170532 67.9986688,125.478665 C67.9784757,125.773829 67.729865,126 67.4350986,126" id="Fill-22" fill="#04243D"></path>
                <path d="M24.8252033,97 C14.8666159,90.6061264 9.24644309,82.4416816 9,74.0101428 L9.3285061,74 C9.57139228,82.3158067 15.1369411,90.3827244 25,96.7149609 L24.8252033,97" id="Fill-23" fill="#FFFFFE"></path>
                <path d="M38.1134486,42 L38,41.6613037 C49.3520025,37.4690707 62.4908869,35.1656033 75.9962977,35 L76,35.3589459 C62.5318765,35.5239945 49.4308083,37.8202497 38.1134486,42" id="Fill-24" fill="#FFFFFE"></path>
                <path d="M77.5001328,56.539798 C91.281081,56.539798 102.852859,60.1374742 106.093436,65 C106.684177,64.1139465 107,63.1860861 107,62.230101 C107,56.0279799 93.7925275,51 77.5001328,51 C61.2074725,51 48,56.0279799 48,62.230101 C48,63.1860861 48.316089,64.1139465 48.9065644,65 C52.1471405,60.1374742 63.718919,56.539798 77.5001328,56.539798" id="Fill-25" fill="#D8E0E1"></path>
                <path d="M77,36 C46.0721445,36 21,49.8793063 21,67 C21,84.1209503 46.0721445,98 77,98 C107.927855,98 133,84.1209503 133,67 C133,49.8793063 107.927855,36 77,36 Z M106.083688,62.282129 C106.083688,68.563215 93.0603161,73.6549541 76.9950235,73.6549541 C60.929731,73.6549541 47.9060976,68.563215 47.9060976,62.282129 C47.9060976,56.001043 60.929731,50.9093039 76.9950235,50.9093039 C93.0603161,50.9093039 106.083688,56.001043 106.083688,62.282129 L106.083688,62.282129 Z" id="Fill-26" fill="#FFFFFE"></path>
                <path d="M132.737034,65 C132.737296,65.0392989 132.739653,65.0783443 132.739653,65.1176432 C132.739653,81.8683629 107.734822,95.4959597 77,95.4959597 C46.2649165,95.4959597 21.2603469,81.8683629 21.2603469,65.1176432 C21.2603469,65.0783443 21.2627042,65.0392989 21.2632281,65 C21.0908857,65.9776556 21,66.9684954 21,67.9709981 C21,68.0141002 21.0026192,68.0566951 21.003143,68.0997972 C23.7449055,83.7341741 47.8107592,96 77,96 C106.188979,96 130.254833,83.7344277 132.996857,68.1000507 C132.997119,68.0569487 133,68.0141002 133,67.9709981 C133,66.968749 132.909114,65.9779092 132.737034,65" id="Fill-27" fill="#9B9B9B"></path>
                <path d="M120.373757,48.2907321 C113.77985,47.0211739 103.930523,49.9942784 99,55.5529054 C102.903537,57.5118152 105.240555,59.9858592 105.240555,62.6784528 C105.240555,64.2324106 104.4599,65.7135186 103.053002,67.0655189 C110.481986,65.8965506 125.239442,70.3637257 128.755516,78 C130.853754,74.7020524 132,71.1490007 132,67.4450642 C132,60.2300748 127.660828,53.5859587 120.373757,48.2907321" id="Fill-28" fill="#80221C"></path>
                <path d="M64,36.9043045 C65.0420742,40.9542668 66.2093335,46.6106285 66.9559918,52 C70.1744009,51.5095564 73.6638698,51.23837 77.3133556,51.23837 C80.7232088,51.23837 83.9937347,51.4751992 87.0340562,51.9061076 C87.7867381,46.5057207 88.9584496,40.8485723 90,36.816182 C85.9251992,36.282464 81.6801676,36 77.3183315,36 C72.7283862,36 68.2691258,36.3147231 64,36.9043045" id="Fill-29" fill="#80221C"></path>
                <path d="M21,67.1678504 C21,70.6054737 22.0288485,73.9114803 23.9249298,77 C28.114794,69.5435954 43.4886326,65.3523068 50.5162808,66.9493411 C48.9817226,65.5751607 48.1279579,64.0606744 48.1279579,62.469007 C48.1279579,59.9174323 50.3137329,57.5634104 54,55.6694079 C49.2727367,50.277213 39.7308003,47.2712412 32.9783216,48.151923 C25.4740123,53.3935894 21,59.9948689 21,67.1678504" id="Fill-30" fill="#80221C"></path>
                <path d="M95.9916606,97.0054138 C96.1722551,87.5996832 93.4054104,76.239769 89.0813637,73.1029615 C85.229117,73.8497584 80.9014008,74.269685 76.3257274,74.269685 C71.5466559,74.269685 67.0412283,73.8098771 63.062644,73 C58.678836,75.9723297 55.8540647,87.3825517 56.005827,96.8636136 C62.3072398,98.2422553 69.1611828,99 76.3307075,99 C83.2493919,99 89.8734635,98.2938664 95.9916606,97.0054138" id="Fill-31" fill="#80221C"></path>
                <path d="M105.096612,66 C105.685283,65.0897022 106,64.1364536 106,63.1543107 C106,60.4507497 103.624404,57.9666285 99.656432,56 C98.4295924,57.3660975 97.5058232,58.8886401 97,60.5413369 C100.875331,62.0081737 103.73081,63.886818 105.096612,66" id="Fill-32" fill="#254D67"></path>
                <path d="M86.3780734,56.9196264 C86.5139894,55.2416124 86.7297333,53.4495514 87,51.6252919 C83.9714994,51.2217033 80.7136894,51 77.3170938,51 C73.6817974,51 70.2061567,51.2539019 67,51.7135308 C67.2684406,53.5365614 67.4820974,55.3259186 67.6154047,57 C70.6486011,56.5946909 73.9139764,56.373725 77.3170938,56.373725 C80.482554,56.373725 83.5267071,56.5666708 86.3780734,56.9196264" id="Fill-33" fill="#254D67"></path>
                <path d="M48,63.0877511 C48,64.0928659 48.2995029,65.0684107 48.8589945,66 C50.0914868,63.9476797 52.5985025,62.1106079 56,60.645426 C55.5603096,58.9580692 54.720443,57.4023123 53.5964261,56 C50.0831813,57.9742661 48,60.4280462 48,63.0877511" id="Fill-34" fill="#254D67"></path>
                <path d="M133,66 C133.012,66.151 133.0195,66.3025 133.0295,66.454 C133.0195,66.3025 133.012,66.151 133,66" id="Fill-35" fill="#254D67"></path>
                <path d="M133,65 C133.0355,65.166419 133.069,65.332838 133.1005,65.5 C133.069,65.332838 133.0355,65.166419 133,65" id="Fill-36" fill="#254D67"></path>
                <path d="M21,65.5 C21.0325,65.3332111 21.0655,65.1664223 21.102,65 C21.066,65.1664223 21.0325,65.3332111 21,65.5" id="Fill-37" fill="#254D67"></path>
                <path d="M21,66.4445 C21.01,66.2965 21.017,66.148 21.029,66 C21.017,66.148 21.01,66.2965 21,66.4445" id="Fill-38" fill="#254D67"></path>
                <path d="M25,76.5763926 C22.5857681,73.0100796 21.2581483,69.1339523 21.2581483,65.0824934 C21.2581483,65.0549072 21.2591871,65.0275862 21.2599662,65 C21.2526945,65.0440318 21.2425659,65.0872679 21.2355538,65.1312997 C21.2165952,65.2517241 21.1994546,65.3724138 21.1825737,65.4931034 C21.1324503,65.8583554 21.0895988,66.2249337 21.0607713,66.5933687 C21.0545384,66.6718833 21.0509025,66.7506631 21.0457083,66.8291777 C21.0186989,67.2403183 21,67.6527851 21,68.0676393 C21,68.1167109 21.0046747,68.1647215 21.0051941,68.2137931 C21.5178548,71.2877984 22.7782106,74.2371353 24.6779639,77 C24.7808077,76.8572944 24.8896247,76.7167109 25,76.5763926" id="Fill-41" fill="#254D67"></path>
                <path d="M132.958328,66.7710697 C132.953511,66.6936668 132.949898,66.616264 132.944117,66.5391166 C132.91762,66.1863332 132.878839,65.8358489 132.832591,65.4863864 C132.817415,65.3714316 132.801277,65.2569878 132.784174,65.1425439 C132.776948,65.0947738 132.76659,65.0477701 132.759123,65 C132.759605,65.02529 132.760568,65.0505801 132.760568,65.0761256 C132.760568,69.1427142 131.422016,73.0253752 129,76.5784992 C129.096592,76.7184886 129.194869,76.8574561 129.283994,77 C131.214862,74.2117084 132.491991,71.22033 132.994701,68.0940713 C132.995182,68.0463012 133,67.999042 133,67.9510165 C133,67.5555721 132.982898,67.1626823 132.958328,66.7710697" id="Fill-42" fill="#254D67"></path>
                <path d="M96,94.7459459 C95.9936978,94.5504668 95.9845071,94.3538084 95.9761042,94.1577396 C89.8608792,95.6145455 83.2399034,96.4138575 76.3285017,96.4138575 C69.1694764,96.4138575 62.3213592,95.5573464 56.0249462,94 C56.0162807,94.1951843 56.0068274,94.3906634 56,94.5855528 C62.3100677,96.1431941 69.1644872,97 76.3285017,97 C83.2441048,97 89.8721706,96.202457 96,94.7459459" id="Fill-43" fill="#9B9B9B"></path>
                <path d="M73.0276724,42.8758579 L73,44.8882276 C79.3369778,46.5571412 94.6933279,51.4957053 102.66141,36.339644 C104.037198,33.6869281 100.912828,31.537176 98.8034612,34.2626994 C94.0874069,40.4935332 91.0178599,46.5525103 73.0276724,42.8758579" id="Fill-44" fill="#04243D"></path>
                <polyline id="Fill-45" fill="#FF5E54" points="70 65.3453791 46.1234456 60 25.53277 88.8218436 19 87.8142857 25.6928793 93 47.2977535 68.2501304 66.392863 73.7656099 70 65.3453791"></polyline>
                <polyline id="Fill-46" fill="#CD572A" points="55 62.2277554 54.817813 70 54 69.7296482 54.2022798 62 55 62.2277554"></polyline>
                <polyline id="Fill-47" fill="#FF5E54" points="69.9183293 56.2454454 50.047353 52 51.065975 89.4572726 45 94 54.6142591 92.5986385 55.6959298 60.7584445 71 68.0400438 69.9183293 56.2454454"></polyline>
                <polyline id="Fill-48" fill="#CA443C" points="55 60.4655393 55.0690968 59 69.6443471 63.5859958 70 68 55 60.4655393"></polyline>
                <path d="M103.489526,31 C91.308463,44.5257864 89.3994687,61.4230764 68.4900569,56.1404474 L67,74.0257934 C97.8183302,79.4636102 101.611613,61.6684657 109,32.3444423 L103.489526,31" id="Fill-49" fill="#04243D"></path>
                <polyline id="Fill-50" fill="#04243D" points="19 88 25.6700245 93 28 90.4176184 25.7083609 88.7033255 25.5104619 88.9714746 19 88"></polyline>
                <polyline id="Fill-51" fill="#04243D" points="45 94 54.8543928 92.4934692 55 88 51.2035775 88.5805465 51.2174838 89.1163502 45 94"></polyline>
                <path d="M109,32.1634638 L108.026585,32 C98.8326609,56.8500706 92.7653509,74.9007093 67.3474016,69.1935014 L67,73.0368138 C97.6329569,78.4403003 101.919435,60.6054031 109,32.1634638" id="Fill-52" fill="#031626"></path>
                <path d="M114.308449,21.0694971 C111.115048,23.2722874 108.706788,25.6131472 108.368639,30.7930297 L108.31501,32 L102.722067,31.5476074 C103.609446,30.0915557 105.700955,27.9557772 101.188242,23.8632553 C98.752243,21.6538902 96.6728867,19.1408229 96.0142874,16.1816848 L93,15.7932694 C95.0843757,15.2589455 95.6351899,13.0652587 96.2855996,11.080952 C97.4596131,7.23169545 102.514687,2.67312576 111.12905,4.36182207 C119.207657,5.94557544 122.371734,15.445314 114.308449,21.0694971" id="Fill-53" fill="#FF5E54"></path>
                <path d="M101.338601,15.8407824 C101.088849,15.7269665 100.852549,15.554192 100.645843,15.3268166 C100.095448,14.720055 99.8784291,13.8502865 100.066303,13 L100.442724,13.1089454 C100.286909,13.8133733 100.459314,14.5052404 100.915099,15.0071581 C101.341739,15.4770331 101.920831,15.6646754 102.426835,15.4954897 C102.99808,15.3042585 103.422702,14.6721191 103.622234,13.7154506 L104,13.8182438 C103.766391,14.9364077 103.246486,15.683132 102.535793,15.9210175 C102.147042,16.0512392 101.726679,16.0176584 101.338601,15.8407824" id="Fill-54" fill="#222B24"></path>
                <path d="M102.104631,22.8894857 C101.689782,22.7884716 101.306468,22.6208629 101,22.3961999 L101.407807,22.1889339 C101.934099,22.5754065 102.735936,22.7540519 103.452047,22.644807 C103.996709,22.5610027 104.372063,22.3260512 104.481362,22 L105,22.0649109 C104.851206,22.5108697 104.320628,22.8449647 103.580941,22.9586991 C103.094757,23.0331503 102.579181,23.0050908 102.104631,22.8894857" id="Fill-55" fill="#222B24"></path>
                <path d="M116.33663,25.7074156 C124.158956,19.5717353 125.86858,-0.670997428 108.407903,0.017126005 C98.7770043,0.393035619 97.8111644,7.01687628 95,5.36757285 C95.8026391,11.1698944 104.845244,12.6116644 108.346734,10.5506877 C109.071757,11.3938739 109.513041,12.4811402 109.768508,13.7239914 C110.027316,13.6903161 110.293578,13.6879667 110.56318,13.7440921 C111.879323,14.0179318 112.727453,15.3231735 112.458107,16.659741 C112.220374,17.8383743 111.192595,18.6450137 110.050961,18.6322223 C108.086384,25.9193868 107.977155,34.0841959 116.718032,32.8812851 C114.21939,32.5152953 112.066169,29.0571879 116.33663,25.7074156" id="Fill-56" fill="#04243D"></path>
                <polyline id="Fill-57" fill="#FFFFFE" points="109 33.4036181 108.779465 30.9662432 104.307764 31.1918974 103.585164 30 102.467572 31.0571746 102.228659 33.380692 91 52 104.289386 34.1630115 109 33.4036181"></polyline>
                <path d="M71.3244461,58.0249311 L56.3585511,49.8400096 L67.9986623,46.2818056 C68.5322444,46.1272908 68.5311888,45.3875704 68.5311888,45 L54.0001817,49.4424291 C53.9949039,49.7868791 54.1046815,50.2144898 54.3189587,50.3551445 L54.3181671,50.3638713 L71.3355294,60 L72,59.3652573 L71.3244461,58.0249311" id="Fill-58" fill="#ADC1C7"></path>
                <polyline id="Fill-59" fill="#F2F1F0" points="70.6450898 59 85 54.595173 68.2228392 45 54 49.4244777 70.6450898 59"></polyline>
                <path d="M86,54 C86,54.3592987 86.0010803,55.0450596 85.4550036,55.1883032 L71.544093,58.9935384 C71.1800419,59.0656361 70.9934252,58.5193117 71.0001769,58.106951 L86,54" id="Fill-60" fill="#ADC1C7"></path>
                <polyline id="Fill-61" fill="#D8E0E1" points="73.369282 52 78 50.7413469 72.5880233 48 68 49.2639874 73.369282 52"></polyline>
                <polyline id="Fill-62" fill="#D8E0E1" points="70.9078663 58 77 56.1114631 63.0376769 48 57 49.8963278 70.9078663 58"></polyline>
                <polyline id="Fill-63" fill="#FFFFFE" points="70 53.6538965 69.4992688 53 69 53.3461035 69.5007312 54 70 53.6538965"></polyline>
                <polyline id="Fill-64" fill="#FFFFFE" points="68 52.6537832 67.4993418 52 67 52.3462168 67.5006582 53 68 52.6537832"></polyline>
                <polyline id="Fill-65" fill="#FFFFFE" points="69 53.6539974 68.4993418 53 68 53.3463303 68.5006582 54 69 53.6539974"></polyline>
                <polyline id="Fill-66" fill="#FFFFFE" points="67 51.6537832 66.4992688 51 66 51.3462168 66.5007312 52 67 51.6537832"></polyline>
                <polyline id="Fill-67" fill="#FFFFFE" points="65 51.6551387 64.4977402 51 64 51.3445351 64.502114 52 65 51.6551387"></polyline>
                <polyline id="Fill-68" fill="#FFFFFE" points="66 51.6537832 65.4994149 51 65 51.3462168 65.5007314 52 66 51.6537832"></polyline>
                <polyline id="Fill-69" fill="#FFFFFE" points="71.5008044 54 72 53.6537832 71.4993418 53 71 53.3462168 71.5008044 54"></polyline>
                <polyline id="Fill-70" fill="#FFFFFE" points="63 50.6509247 62.5024283 50 62 50.3490753 62.4975717 51 63 50.6509247"></polyline>
                <polyline id="Fill-71" fill="#FFFFFE" points="73.5005851 54 74 53.6534556 73.4992686 53 73 53.3462168 73.5005851 54"></polyline>
                <polyline id="Fill-72" fill="#FFFFFE" points="73.4994882 54 73 54.3464309 73.5005118 55 74 54.6535691 73.4994882 54"></polyline>
                <polyline id="Fill-73" fill="#FFFFFE" points="72 55.6536697 71.4994881 55 71 55.3460026 71.5006582 56 72 55.6536697"></polyline>
                <polyline id="Fill-74" fill="#FFFFFE" points="72 54.6537832 71.4992688 54 71 54.3462168 71.5007312 55 72 54.6537832"></polyline>
                <polyline id="Fill-75" fill="#FFFFFE" points="67 51.3462168 67.5004386 52 68 51.6537832 67.4994152 51 67 51.3462168"></polyline>
                <polyline id="Fill-76" fill="#FFFFFE" points="68 52.3462168 68.5005118 53 69 52.6534556 68.4994882 52 68 52.3462168"></polyline>
                <polyline id="Fill-77" fill="#FFFFFE" points="61.5010231 50 62 49.654123 61.4988308 49 61 49.345877 61.5010231 50"></polyline>
                <polyline id="Fill-78" fill="#FFFFFE" points="69 53.3464309 69.5004386 54 70 53.6535691 69.4994152 53 69 53.3464309"></polyline>
                <polyline id="Fill-79" fill="#FFFFFE" points="71 53.3464309 71.5005848 54 72 53.6538965 71.4994152 53 71 53.3464309"></polyline>
                <polyline id="Fill-80" fill="#FFFFFE" points="73.5006582 55 74 54.6539974 73.4993418 54 73 54.3463303 73.5006582 55"></polyline>
                <polyline id="Fill-81" fill="#FFFFFE" points="72 54.6534556 71.499415 54 71 54.3462168 71.5004387 55 72 54.6534556"></polyline>
                <polyline id="Fill-82" fill="#FFFFFE" points="64 49.3492902 64.4974253 50 65 49.6507098 64.5025747 49 64 49.3492902"></polyline>
                <polyline id="Fill-83" fill="#FFFFFE" points="71.5006582 53 72 52.6537832 71.4993418 52 71 52.3462168 71.5006582 53"></polyline>
                <polyline id="Fill-84" fill="#FFFFFE" points="62 49.3457638 62.5009496 50 63 49.6539091 62.4990504 49 62 49.3457638"></polyline>
                <polyline id="Fill-85" fill="#FFFFFE" points="65 50.345075 65.5021866 51 66 50.6552511 65.4979592 50 65 50.345075"></polyline>
                <polyline id="Fill-86" fill="#FFFFFE" points="66 51.3465444 66.5005118 52 67 51.6537832 66.4994882 51 66 51.3465444"></polyline>
                <polyline id="Fill-87" fill="#FFFFFE" points="75 55.3463303 75.5006582 56 76 55.6539974 75.4993418 55 75 55.3463303"></polyline>
                <polyline id="Fill-88" fill="#FFFFFE" points="67.4994882 53 67 53.3463303 67.5005118 54 68 53.6536697 67.4994882 53"></polyline>
                <polyline id="Fill-89" fill="#FFFFFE" points="68.4994882 54 68 54.3465444 68.5005118 55 69 54.6537832 68.4994882 54"></polyline>
                <polyline id="Fill-90" fill="#FFFFFE" points="69.4994882 55 69 55.3464309 69.5005118 56 70 55.6535691 69.4994882 55"></polyline>
                <polyline id="Fill-91" fill="#FFFFFE" points="65.4995614 52 65 52.3462168 65.5005848 53 66 52.6534556 65.4995614 52"></polyline>
                <polyline id="Fill-92" fill="#FFFFFE" points="64.4995613 51 64 51.3462168 64.500585 52 65 51.6534556 64.4995613 51"></polyline>
                <polyline id="Fill-93" fill="#FFFFFE" points="71.4995613 55 71 55.3463303 71.5004387 56 72 55.6536697 71.4995613 55"></polyline>
                <polyline id="Fill-94" fill="#FFFFFE" points="62.4978866 51 62 51.345075 62.5021134 52 63 51.6552511 62.4978866 51"></polyline>
                <polyline id="Fill-95" fill="#FFFFFE" points="71 56.3462168 71.500658 57 72 56.6537832 71.4994882 56 71 56.3462168"></polyline>
                <polyline id="Fill-96" fill="#FFFFFE" points="69.5007314 52 70 51.6537832 69.4994149 51 69 51.3462168 69.5007314 52"></polyline>
                <polyline id="Fill-97" fill="#FFFFFE" points="73 55.3464309 73.5005118 56 74 55.6535691 73.499342 55 73 55.3464309"></polyline>
                <polyline id="Fill-98" fill="#FFFFFE" points="73 56.3462168 73.500585 57 74 56.6537832 73.4992688 56 73 56.3462168"></polyline>
                <polyline id="Fill-99" fill="#FFFFFE" points="66.4995614 53 66 53.3462168 66.5004386 54 67 53.6537832 66.4995614 53"></polyline>
                <polyline id="Fill-100" fill="#FFFFFE" points="66.5022598 51 67 50.6551387 66.4977402 50 66 50.3448613 66.5022598 51"></polyline>
                <polyline id="Fill-101" fill="#FFFFFE" points="65.4975717 50 66 49.6509247 65.5024283 49 65 49.348745 65.4975717 50"></polyline>
                <polyline id="Fill-102" fill="#FFFFFE" points="68.5006582 52 69 51.6537832 68.4993418 51 68 51.3462168 68.5006582 52"></polyline>
                <polyline id="Fill-103" fill="#FFFFFE" points="61.5025007 50 61 50.3489601 61.4973522 51 62 50.6507098 61.5025007 50"></polyline>
                <polyline id="Fill-104" fill="#FFFFFE" points="67.5006582 52 68 51.6537832 67.4993418 51 67 51.3462168 67.5006582 52"></polyline>
                <polyline id="Fill-105" fill="#FFFFFE" points="63 48.6573744 62.4952851 48 62 48.3426256 62.5047149 49 63 48.6573744"></polyline>
                <polyline id="Fill-106" fill="#FFFFFE" points="64.501096 49 65 48.654123 64.498904 48 64 48.345877 64.501096 49"></polyline>
                <polyline id="Fill-107" fill="#FFFFFE" points="62 48.6571614 61.4955033 48 61 48.3425146 61.5046417 49 62 48.6571614"></polyline>
                <polyline id="Fill-108" fill="#FFFFFE" points="59.4954315 49 59 49.3425146 59.5045685 50 60 49.6571614 59.4954315 49"></polyline>
                <polyline id="Fill-109" fill="#FFFFFE" points="60.4989772 50 60 50.3460909 60.5008767 51 61 50.6542362 60.4989772 50"></polyline>
                <polyline id="Fill-110" fill="#FFFFFE" points="61 48.6573744 60.4953569 48 60 48.3423015 60.5047882 49 61 48.6573744"></polyline>
                <path d="M70,59 L62.1049239,44.7990901 L45.6505224,35 C45.2078605,35.3212816 44.8506022,35.9850025 45.0629568,36.3726301 L52.0614247,48.9120176 C52.0919443,48.9692214 52.1491364,49.0209399 52.2168436,49.0687403 L68.753571,58.9346989 L68.9954193,58.4770684 L68.9330978,58.364228 L70,59" id="Fill-111" fill="#D8E0E1"></path>
                <path d="M62.6890861,45 C62.2209341,45.3136068 61.8421467,45.9669118 62.0662333,46.3477931 L69.4335535,58.6273168 C69.6063432,58.9289012 70.4292541,59.1258647 71,58.9066468 L62.6890861,45" id="Fill-112" fill="#ADC1C7"></path>
                <path d="M74,43.1915223 C72.1711034,42.7407309 69.6461007,43.1305988 68.6147541,43.8926818 C67.9249882,44.3333552 66.8180871,45.55032 67.0254659,45.789063 C67.1010205,45.8420213 67.1974451,45.8465421 67.3060218,45.818556 C67.1625737,46.2013198 67.1115876,46.504646 67.2246553,46.5601877 C67.3385156,46.6099168 67.4867188,46.5412432 67.6383563,46.4168127 C67.6082402,46.7321946 67.6291101,46.955007 67.7207795,46.9726597 C68.856476,47.1928888 68.1241776,44.5800635 69.8812181,45.5989728 C69.4321174,46.2086392 68.7825064,46.9543611 69.4944631,47 C70.0447436,46.958882 70.1652083,46.4484586 70.8140267,45.7591394 C71.3217747,45.4211534 73.982036,44.8594939 73.982036,44.8594939 L74,43.1915223" id="Fill-113" fill="#E36730"></path>
                <path d="M104.736647,38.7379984 C114.996159,56.1993321 104.246034,59.3814957 84.3040446,49.0223899 L83,51.2050245 C112.561446,68.162614 118.816818,55.3402454 108.124131,33.0037363 C105.5897,32.8532806 104.210136,37.2886427 104.736647,38.7379984" id="Fill-114" fill="#04243D"></path>
                <path d="M84,49.464107 C82.5369921,48.7023398 81.524973,48.2164838 80.5343437,48.1181079 C79.6210268,47.9138993 78.9324313,47.9993686 77.8948991,48.1857951 C77.0702337,48.3403856 76.2146434,48.8354196 76.3741646,49.2963232 C75.9870873,49.5633432 75.6170187,49.8650673 75.2992648,50.176256 C74.6439136,50.8947149 75.1799461,51.1749282 75.8059186,50.820718 C75.9025591,50.7659373 76.0257435,50.6887854 76.1605248,50.6038897 C75.8404515,51.080281 75.7878791,51.4468241 76.0066731,51.6002674 C76.4177173,51.8882246 76.8199993,51.1694789 77.681517,50.423773 C77.7941353,50.3262576 77.9353593,50.2958558 78.0938496,50.2961426 C77.7482633,50.5617286 77.4104082,50.8757855 77.1094054,51.2340111 C76.5991436,51.8865037 77.1506386,52.2031419 77.6572924,51.8595436 C78.014991,51.6169024 78.7167297,51.0143147 79.5532497,50.6902194 C80.5995439,51.2033224 80.7080389,51.6418548 82.7374888,51.8684347 L84,49.464107" id="Fill-115" fill="#E36931"></path>
                <path d="M104.580721,38.9984625 C114.755184,56.3388059 104.094452,59.4986653 84.3182898,49.2113381 L84,49.744993 C91.1115495,53.8421269 103.82653,59.2128425 108.819223,53.5435555 C111.677767,50.2717638 108.940791,41.917629 104.934083,36 C104.490007,37.146096 104.349981,38.3620542 104.580721,38.9984625" id="Fill-116" fill="#031727"></path>
            </g>
        </g>
    </g>
</svg>