<?xml version="1.0" encoding="UTF-8"?>
<svg width="36px" height="31px" viewBox="0 0 36 31" version="1.1" xmlns="http://www.w3.org/2000/svg" xmlns:xlink="http://www.w3.org/1999/xlink">
    <!-- Generator: Sketch 46.2 (44496) - http://www.bohemiancoding.com/sketch -->
    <title>Megaphone</title>
    <desc>Created with Sketch.</desc>
    <defs></defs>
    <g id="Upated-Design" stroke="none" stroke-width="1" fill="none" fill-rule="evenodd">
        <g id="Megaphone">
            <g id="Group-13" transform="translate(1.000000, 0.000000)">
                <path d="M11,21 L10.5625886,30.165472 C10.5386553,31.0355197 8.81105338,31.3684643 8.61391907,30.4601369 L7,21.7712326 L11,21" id="Fill-6" fill="#406C8F"></path>
                <path d="M5.6449345,17.3345257 L6,21.9114841 C3.74954886,22.3254847 0.795033487,21.3118575 0.120664475,18.3501612 C-0.554023841,15.3887517 1.72005576,13.4140006 3.9708262,13 L5.6449345,17.3345257" id="Fill-7" fill="#406C8F"></path>
                <path d="M3.79152927,13.1731186 C3.80891105,13.1697249 3.8281225,13.180189 3.84580922,13.1787749 L10.0581194,12 L12,20.8023492 L5.73676423,21.9910227 C4.92408965,22.1451571 3.82995216,20.2961095 3.29264161,17.861351 C2.75533105,15.4263096 2.97885468,13.3272531 3.79152927,13.1731186" id="Fill-8" fill="#065674"></path>
                <path d="M9.58920391,14 L10,15.7778441 L3.25595312,17 C3.1083323,16.3570698 3.02888861,15.7481665 3,15.1940133 L9.58920391,14" id="Fill-9" fill="#406C8F"></path>
                <path d="M9.28798325,16.4434003 C8.75939501,13.8658579 8.97899012,11.6442619 9.77847233,11.480808 C9.79347199,11.4778144 9.80997163,11.4876934 9.82527129,11.4861966 C14.8417596,10.4387145 23.6474636,5.96109542 26.1875071,1 L29.1976401,12.3833969 L31,24 C26.7037956,20.4267659 16.7245177,19.7957021 11.7068294,20.8066615 C11.7014295,20.807859 11.6975296,20.813547 11.6924297,20.8147444 C11.6858299,20.8159419 11.67893,20.8114514 11.6723302,20.8123495 C11.6702302,20.8129482 11.6681303,20.8132476 11.6660303,20.813547 L11.6651303,20.8117508 C10.8686481,20.9279048 9.81057161,18.9931016 9.28798325,16.4434003" id="Fill-10" fill="#C2D0D4"></path>
                <path d="M26.3573052,6 L28,14.026492 C22.9772529,12.73095 13.4234135,15.1075345 9.21447032,16 C9.09614187,15.3818544 9.02573644,14.7944737 9,14.255804 C16.7564302,12.6392252 24.5551629,9.79803447 26.3573052,6" id="Fill-11" fill="#D8E0E1"></path>
                <path d="M25.7190566,13.36585 C27.1447648,20.2524901 30.2172868,25.4476957 32.5814855,24.969461 C34.9459863,24.4915247 35.7068674,18.5210535 34.2811592,11.6344134 C32.855451,4.74747475 29.7829291,-0.447432313 27.4184283,0.0305039126 C25.0539275,0.508738662 24.2930464,6.47891142 25.7190566,13.36585" id="Fill-12" fill="#FFFFFE"></path>
                <path d="M26.6636997,13.22673 C27.881699,19.5650697 30.362963,24.378104 32.2055132,23.976599 C34.0483412,23.5753896 34.5545912,18.1116096 33.3363142,11.77327 C32.1183149,5.43493033 29.6370509,0.621895963 27.794223,1.02340101 C25.9516727,1.42490606 25.4454226,6.88839043 26.6636997,13.22673" id="Fill-13" fill="#D8E0E1"></path>
                <path d="M26,9.16032004 L28.6812821,9 L29.5440544,11.5249651 L30,16.0112088 L27.478285,17 C27.1214097,15.7953353 26.800888,14.489829 26.5405855,13.1058233 C26.2830581,11.735404 26.1071181,10.4099709 26,9.16032004" id="Fill-14" fill="#065674"></path>
                <path d="M28.2488423,12.721247 C28.7055974,14.6503581 29.6361661,16.1150146 30.327217,15.9928847 C31.0179198,15.8707548 31.2080023,14.2078628 30.7512472,12.2787517 C30.2941441,10.3499414 29.3639234,8.88498404 28.6728725,9.00711395 C27.9818216,9.12954467 27.7920873,10.7921359 28.2488423,12.721247" id="Fill-15" fill="#406C8F"></path>
            </g>
        </g>
    </g>
</svg>