<?xml version="1.0" encoding="UTF-8"?>
<svg width="997px" height="781px" viewBox="0 0 997 781" version="1.1" xmlns="http://www.w3.org/2000/svg" xmlns:xlink="http://www.w3.org/1999/xlink">
    <!-- Generator: Sketch 48.2 (47327) - http://www.bohemiancoding.com/sketch -->
    <title>Group 15</title>
    <desc>Created with Sketch.</desc>
    <defs></defs>
    <g id="1" stroke="none" stroke-width="1" fill="none" fill-rule="evenodd" transform="translate(-27.000000, -175.000000)" opacity="0.697633605">
        <g id="Group-4" transform="translate(28.000000, 175.000000)" stroke="#FFFFFF">
            <g id="Group-15">
                <ellipse id="Oval-6" cx="813.5" cy="310.5" rx="289.5" ry="152.5"></ellipse>
                <ellipse id="Oval-6" cx="827.5" cy="317.5" rx="327.5" ry="171.5"></ellipse>
                <ellipse id="Oval-6" cx="818" cy="341" rx="402" ry="210"></ellipse>
                <ellipse id="Oval-6" opacity="0.750169837" cx="821" cy="370.5" rx="499" ry="260.5"></ellipse>
                <ellipse id="Oval-6" opacity="0.762284873" cx="829" cy="374" rx="565" ry="296"></ellipse>
                <ellipse id="Oval-6" opacity="0.700747283" cx="809.5" cy="399" rx="645.5" ry="337"></ellipse>
                <path d="M765.5,747 C1144.0912,747 1451,587.837229 1451,391.5 C1451,197.309874 1150.76707,39.4855867 777.894555,36.056944 C773.771814,36.0190345 769.640193,36 765.5,36 C748.721625,36 732.084039,36.3126081 715.607719,36.9272061 C360.308476,50.1805403 80,203.86403 80,391.5 C80,587.837229 386.908804,747 765.5,747 Z" id="Oval-6" opacity="0.673686594" transform="translate(765.500000, 391.500000) rotate(-3.000000) translate(-765.500000, -391.500000) "></path>
                <path d="M753,780 C1154.51101,780 1480,609.644347 1480,399.5 C1480,189.355653 1154.51101,19 753,19 C726.705757,19 700.73755,19.7306056 675.165444,21.1551457 C632.113814,23.5534141 590.184856,27.9185031 549.712897,34.075431 C545.532505,34.7113867 541.367657,35.3664597 537.218722,36.0404571 C241.070271,84.1499831 26,228.679592 26,399.5 C26,609.644347 351.488987,780 753,780 Z" id="Oval-6" opacity="0.53979846"></path>
                <path d="M742,762 C1151.79528,762 1484,591.644347 1484,381.5 C1484,171.355653 1151.79528,1 742,1 C715.163234,1 688.659232,1.73060557 662.559504,3.1551457 C618.619602,5.55341414 575.825534,9.91850308 534.518528,16.075431 C530.251882,16.7113867 526.001102,17.3664597 521.766564,18.0404571 C219.507759,66.1499831 0,210.679592 0,381.5 C0,591.644347 332.204716,762 742,762 Z" id="Oval-6" opacity="0.53979846"></path>
            </g>
        </g>
    </g>
</svg>