<?xml version="1.0" encoding="UTF-8"?>
<svg width="133px" height="189px" viewBox="0 0 133 189" version="1.1" xmlns="http://www.w3.org/2000/svg" xmlns:xlink="http://www.w3.org/1999/xlink">
    <!-- Generator: Sketch 46.2 (44496) - http://www.bohemiancoding.com/sketch -->
    <title>Sitting Lady Chatting</title>
    <desc>Created with Sketch.</desc>
    <defs></defs>
    <g id="Upated-Design" stroke="none" stroke-width="1" fill="none" fill-rule="evenodd">
        <g id="Sitting-Lady-Chatting">
            <g id="Group" transform="translate(0.000000, 1.000000)">
                <path d="M21,95 C20.3352662,93.4902238 20.1591524,91.8845695 19.4623544,92.006541 C19.0196771,92.0878553 18.7014281,92.3779168 19.4436902,94.9223266 L21,95" id="Fill-63" fill="#E36730"></path>
                <path d="M24,97.9618247 L20.8302775,94.4235513 C19.6538446,93.6042824 18.1081788,94.0094574 17.3776657,95.3288243 C16.6471526,96.6481913 17.0084328,98.3822893 18.1848657,99.2015582 L22.261197,101 L24,97.9618247" id="Fill-64" fill="#FF5E54"></path>
                <polyline id="Fill-65" fill="#FFFFFE" points="21.6661525 98 23 96.5967426 9.3338475 85 8 86.4032574 21.6661525 98"></polyline>
                <path d="M18.7705558,94.0284919 C20.9172141,94.3688583 20.5610421,96.1648581 21,98 L17.1661774,97.5138434 C16.9011341,96.0122605 16.6822969,93.7181913 18.7705558,94.0284919 Z" id="Fill-66" fill="#FF5E54"></path>
                <path d="M57.7927062,87.0045346 C46.5875725,119.369707 38.5844208,113.38815 23,101.472082 L24.839577,98.5582878 C44.2005095,113.358212 45.853785,105.266919 52.1760165,85.2155664 C53.0786773,81.4720526 59.1923713,82.7422933 57.7927062,87.0045346" id="Fill-67" fill="#04243D"></path>
                <path d="M48.2390284,67.20559 C51.7324793,70.7734377 54.1483392,74.1255551 53.415871,80.9791416 L53.8240216,82.1352348 L60.2626432,83 C60.1371996,79.9465862 57.244654,78.0320564 63.985564,73.6738121 C67.5573407,71.3646986 70.6714012,68.4587927 72.1528594,64.7256132 L76,64.8626726 C73.5186647,63.7170278 73.3204026,60.7269195 72.950803,57.9900331 C72.3437784,52.6994158 67.0525067,45.6485375 55.9284143,46.0136196 C45.4964032,46.3565755 39.4322767,58.1154148 48.2390284,67.20559" id="Fill-68" fill="#FF5E54"></path>
                <path d="M63.5226853,62.9815613 C64.2246605,63.0577345 64.975811,62.8972845 65.6193908,62.5115561 C66.5666271,61.945389 67.0786634,61.005919 66.9901481,60 L66.4098813,60.038897 C66.4848734,60.8735613 66.0767197,61.6207073 65.2929907,62.0890918 C64.5572075,62.5299242 63.6591463,62.6114998 62.9516388,62.3084275 C62.1500838,61.9648375 61.6632499,61.1528632 61.5796521,60.0232301 L61,60.055104 C61.0971209,61.377061 61.7001312,62.3392209 62.6977721,62.7670877 C62.957171,62.8789165 63.2356253,62.9502276 63.5226853,62.9815613" id="Fill-69" fill="#222B24"></path>
                <path d="M64,71.2954593 L63.6415479,70.8691655 C62.9921443,71.4369651 62.1163806,71.5974173 61.419261,71.2830257 C60.8850742,71.0432355 60.5685191,70.5760886 60.5493163,70 L60,70.0183543 C60.0244399,70.8058136 60.4725051,71.4701213 61.1969741,71.7957623 C61.4099505,71.8904943 61.6339831,71.951478 61.8632528,71.9804896 C62.5970323,72.0734453 63.383183,71.832471 64,71.2954593 Z" id="Fill-70" fill="#222B24"></path>
                <path d="M41,58.5009567 C42.0592241,39.6624323 54.7615169,40.8017718 62.0753217,43.5342606 C66.5815227,45.2176904 71.0073522,49.8346336 72,53.3417289 C68.9686756,54.7862164 62.8694399,55.9953728 57.1096837,53.9947576 C56.204005,55.3495665 55.5130502,56.6604389 54.9744413,57.9382085 C54.8017026,57.8810309 54.6217665,57.8382981 54.4346329,57.815427 C52.9093741,57.6252362 51.5196672,58.712213 51.3301345,60.242166 C51.1507981,61.6956816 52.1242527,63.0137764 53.5283545,63.306887 C53.1864758,65.9737721 53.5283545,68.4944027 53.5847344,70.9590595 C53.6129244,72.2169674 53.5475476,72.9055064 53.5553449,73 C50.4304537,66.0550245 41.7509335,65.7685345 41,58.5009567" id="Fill-71" fill="#093448"></path>
                <path d="M47.9383435,50.9846798 C48.4821175,46.6001008 45.368676,42.6054306 40.9846798,42.0616565 C36.6001008,41.5178825 32.6054306,44.631324 32.0616565,49.0153202 C31.5178825,53.3993163 34.631324,57.3945694 39.0153202,57.9383435 C43.3993163,58.4821175 47.3945694,55.368676 47.9383435,50.9846798" id="Fill-72" fill="#093448"></path>
                <polyline id="Fill-73" fill="#FF5E54" points="45 139.092661 26.9973678 188 19 188 25.266275 182.976937 38.3512103 139 45 139.092661"></polyline>
                <polyline id="Fill-74" fill="#FF5E54" points="36 139.092661 7.25094629 188 0 188 6.28849105 182.999951 29.3211253 139 36 139.092661"></polyline>
                <path d="M61.5657183,145.471822 C68.3453174,144.672946 66.9708487,131.887895 66.7130199,126.174171 C66.3884153,110.807669 64.8080546,94.2057678 61.1904136,81.4006538 L54.0522037,81 C49.2295067,95.8211504 48.5054838,104.120581 47.8754417,125.532152 C47.642963,136.383851 35.7686173,130.81908 31.7812362,135.453045 C28.2396453,139.56841 24,148.529923 24,148.529923 L47.1347249,150 L47.9613847,148.258767 C48.5116668,146.856783 55.2189254,146.420259 61.5657183,145.471822" id="Fill-75" fill="#04243D"></path>
                <polyline id="Fill-78" fill="#FFFFFE" points="50 113 57 82.5422159 55.2229619 80 53.1565582 82.1041763 50 113"></polyline>
                <polyline id="Fill-79" fill="#FFFFFE" points="55 80.7348288 53.3418818 86 52 81.4949504 53.1510408 79 55 80.7348288"></polyline>
                <polyline id="Fill-80" fill="#FFFFFE" points="55 80.6636473 56.2981397 86 62 82.0495169 60.3739164 79 55 80.6636473"></polyline>
                <path d="M39.6335225,133.41581 C38.9395558,133.799881 38.4554213,134.15215 38.3459436,134.446319 C37.8581598,135.590581 37.7188799,136.080455 39.0654551,136.52446 C41.0853179,137.131145 42.966509,137.201477 43.1988449,136.477369 C43.4500353,135.397934 44.4481066,134.479955 46.4472903,134.139306 L46.4509396,134.154596 C54.9147789,132.971193 61.8556624,130.218481 66,125.268981 C65.6758245,112.316985 64.4776523,98.6060201 61.9584498,87.057595 C59.9848109,84.3024366 55.9651562,87.4324922 57.4741233,90.7062686 C69.5586321,110.312844 67.4603103,126.484798 46.2094805,130.584204 C44.7479538,132.621982 42.2348333,133.117971 39.6335225,133.41581" id="Fill-81" fill="#062432"></path>
                <path d="M46.241671,130.866815 L44.4178265,130 C41.7573506,131.413523 37.6874309,133.107567 37.3422978,134.149793 C36.8598343,135.42681 36.7212992,135.9742 38.0554523,136.469035 C40.0557784,137.146789 41.9181718,137.224598 42.1482605,136.41648 C42.4012376,135.192019 43.413146,134.149793 45.4598513,133.785321 L47,132.143832 L46.241671,130.866815" id="Fill-82" fill="#FF5E54"></path>
                <path d="M60.9913414,86.5696014 C77.8127324,117.729417 66.0559852,130.097529 44.9729042,133 L44,129.584324 C66.206847,125.731022 68.5073345,109.461457 56.1323621,89.6981997 C54.519681,86.2532674 59.1520598,82.9564451 60.9913414,86.5696014" id="Fill-83" fill="#04243D"></path>
                <path d="M56.156129,89.6464971 C68.5553436,109.223999 66.2503496,125.340645 44,129.15773 L44.2424686,130 C77.5532113,122.679795 61.6360427,97.2601378 58.1051323,89.9320841 C57.0902192,87.5205948 58.6900184,86.1639056 60.5834945,85.8873753 C58.5425629,83.4481122 54.6568957,86.4790777 56.156129,89.6464971" id="Fill-84" fill="#0E465F"></path>
                <path d="M112.67957,0.67072756 L86.3798663,0.0068092926 C74.868776,-0.283541057 65.2992417,8.74769114 65.0068461,20.178262 C64.7603284,29.8163143 71.1973144,38.0591056 80.1190517,40.5896486 L77.1369832,53 L89.9063535,41.5171904 L111.620094,42.0656974 C123.131184,42.3560478 132.700719,33.325423 132.993114,21.8942447 C133.286122,10.4636739 124.191272,0.961077909 112.67957,0.67072756" id="Fill-107" fill="#FFFFFE"></path>
            </g>
        </g>
    </g>
</svg>