<?xml version="1.0" encoding="UTF-8"?>
<svg width="186px" height="111px" viewBox="0 0 186 111" version="1.1" xmlns="http://www.w3.org/2000/svg" xmlns:xlink="http://www.w3.org/1999/xlink">
    <!-- Generator: Sketch 46.2 (44496) - http://www.bohemiancoding.com/sketch -->
    <title>woman man </title>
    <desc>Created with Sketch.</desc>
    <defs></defs>
    <g id="Upated-Design" stroke="none" stroke-width="1" fill="none" fill-rule="evenodd">
        <g id="woman-man-">
            <g id="Group-11" transform="translate(0.000000, 1.000000)">
                <g id="Group-8">
                    <path d="M81.8771837,100.585238 L81.7270661,104.859868 C71.0997719,103.391674 36.8229092,105.322013 23.6746739,72.9503163 C20.5748308,65.9174436 30.0641641,63.592086 32.6920857,69.8762315 C42.0787523,98.9750436 63.4032229,98.4655648 81.8771837,100.585238 Z" id="Fill-20" fill="#093448" transform="translate(52.468324, 85.538956) rotate(33.000000) translate(-52.468324, -85.538956) "></path>
                    <path d="M24.7500108,10.7564851 L28.7583245,9.65318812 C43.6001284,8.75815782 54.6424029,10.8218911 57.1020892,21.620776 L57.1064029,21.6070063 C57.133148,21.7395396 57.1564422,21.8737942 57.1823245,22.0080487 C57.2513441,22.3445457 57.312599,22.6905093 57.3652265,23.0442184 C57.9656971,26.7017942 58.3444422,30.7036124 61.7384814,32.1485699 L56.5378539,32.1072608 C54.6769127,37.1684851 50.5797363,41.1823518 45.8424029,44.4122063 C36.9017755,50.507879 40.0361284,53.2351396 41.0489912,55.7773699 L31.8961284,55.1379396 L31.7442853,52.9261821 L31.7399716,52.9322063 C31.2214618,44.3708972 28.7609127,41.3854548 24.3384814,36.3242305 C18.9489127,30.1554063 15.4599716,14.8254305 24.7500108,10.7564851" id="Fill-21" fill="#FF5E54"></path>
                    <path d="M42.7498824,42.3099758 C42.3055686,42.3099758 41.8672941,42.2290788 41.4557647,42.0612606 C40.4144314,41.6369818 39.7527059,40.729903 39.6862745,39.6352121 L40.4670588,39.5878788 C40.5153725,40.3882424 40.9838431,41.0268121 41.7516863,41.3400727 C42.7585098,41.7497212 43.9913725,41.4915394 44.8920784,40.6774061 L45.4157647,41.2557333 C44.653098,41.9442182 43.6911373,42.3099758 42.7498824,42.3099758" id="Fill-27" fill="#222B24"></path>
                    <path d="M41.1529412,54.2181818 C54.3701961,80.1361939 48.8762353,130.044461 70.5035294,130.044461 L66.1785882,141.434582 C28.8424314,141.434582 33.9058824,146.067224 31.0588235,55.2870545 L41.1529412,54.2181818" id="Fill-28" fill="#04243D"></path>
                    <polygon id="Fill-29" fill="#04243D" points="31.0355294 52.2078061 38.8399216 54.2749818 40.3790588 51.6363636 42.4341176 53.9978667 41.4963137 56.9833091 48.0367843 88.3730545 37.8641569 58.3482303 30.1960784 55.8688242"></polygon>
                    <path d="M19.1699769,43.4836678 C5.28582005,29.7389284 8.28472202,-4.91165341 38.4971926,0.585898102 C55.1619769,3.61264962 55.2240946,15.170589 60.5187612,13.0474739 C57.7044867,22.7637163 41.6186044,22.9891951 36.0306044,18.6009648 C34.563075,19.8626133 33.5295063,21.6105042 32.7806436,23.6716557 C32.3389181,23.5503102 31.8764867,23.4797405 31.3933495,23.5090011 C29.0371926,23.6510011 27.2418201,25.6717042 27.384173,28.0220193 C27.5101338,30.0952193 29.1010357,31.727789 31.0905259,31.9885526 C32.613271,46.4751345 30.3520161,59.3988557 15.4368789,55.1801648 C19.8739769,55.1732799 28.389271,52.337583 19.1699769,43.4836678" id="Fill-30" fill="#04243D"></path>
                    <path d="M31.507451,56.8 C20.9172549,95.9265939 17.9123137,110.998388 0,132.648655 L2.27678431,135.658194 C25.1438431,112.822873 29.6068235,95.5109212 35.4864314,69.7951515 C36.2456471,65.5953939 35.6494902,58.6158788 31.507451,56.8" id="Fill-32" fill="#04243D"></path>
                    <ellipse id="Oval-2" fill="#093448" cx="51.7647059" cy="26.6787879" rx="1.7254902" ry="1.72121212"></ellipse>
                </g>
                <g id="Group-9" transform="translate(103.000000, 5.000000)">
                    <polyline id="Fill-138" fill="#FF5E54" points="20.2086207 10.6463704 7.13793103 27.8102963 15.4181034 27.2062469 12.7663793 49.5749506 50.5396552 48.058821 40.7672414 1.71604938 21.2896552 2.2797716 20.2086207 10.6463704"></polyline>
                    <path d="M19.2336207,42.4164506 L19.2068966,41.5069444 C23.4534483,41.3842469 28.8646552,38.8762407 30.9887931,34.3209877 L31.8181034,34.7036667 C29.537931,39.5944074 23.7612069,42.2860309 19.2336207,42.4164506" id="Fill-140" fill="#212B24"></path>
                    <path d="M38.6681034,15.5800123 C40.6086207,15.5242407 42.2275862,17.0438025 42.2836207,18.975216 C42.312931,19.979963 41.9086207,20.8911852 41.2456897,21.5492901 L46.2224138,29.8378086 L41.7181034,0 L12.3103448,0.851160494 L19.6827586,10.5142346 L34.3344828,8.96378395 L38.0137931,15.6649568 C38.2258621,15.6186235 38.4431034,15.5868765 38.6681034,15.5800123" id="Fill-141" fill="#04243D"></path>
                    <path d="M12.9562856,48.0493827 C1.14163044,64.7825802 -4.27561094,109.981605 4.77180285,138.796648 L38.4847339,138.613031 C42.8269753,97.5522593 44.4424925,79.4608086 50.4968029,48.2415802 L12.9562856,48.0493827" id="Fill-142" fill="#F7F7F7"></path>
                    <path d="M49.9195367,48.2364532 C83.585916,89.4877062 103.698847,114.611527 47.5100539,114.846626 L47.5100539,107.759342 C71.8419505,103.191219 82.3712608,104.086996 45.7893643,66.647089 C41.1341919,61.5615766 48.0488471,46.1857741 49.9195367,48.2364532" id="Fill-147" fill="#F7F7F7"></path>
                    <ellipse id="Oval-2" fill="#093448" cx="23.5172414" cy="16.3024691" rx="1.72413793" ry="1.71604938"></ellipse>
                </g>
            </g>
        </g>
    </g>
</svg>