<?xml version="1.0" encoding="UTF-8"?>
<svg width="218px" height="131px" viewBox="0 0 218 131" version="1.1" xmlns="http://www.w3.org/2000/svg" xmlns:xlink="http://www.w3.org/1999/xlink">
    <!-- Generator: Sketch 46.2 (44496) - http://www.bohemiancoding.com/sketch -->
    <title>woman man friends</title>
    <desc>Created with Sketch.</desc>
    <defs></defs>
    <g id="Upated-Design" stroke="none" stroke-width="1" fill="none" fill-rule="evenodd">
        <g id="woman-man-friends">
            <g id="Group-11" transform="translate(0.000000, 1.000000)">
                <g id="Group-8">
                    <path d="M95.8335218,118.293906 L95.657816,123.321112 C83.2190512,121.594433 43.0995414,123.864621 27.7101297,85.7936819 C24.0819042,77.5226273 35.1887375,74.7878758 38.2646003,82.1783849 C49.2512669,116.400227 74.2105905,115.801052 95.8335218,118.293906 Z" id="Fill-20" fill="#093448" transform="translate(61.411789, 100.598632) rotate(33.000000) translate(-61.411789, -100.598632) "></path>
                    <path d="M28.9687626,12.6502325 L33.6603116,11.3526931 C51.0319685,10.300087 63.9564489,12.7271537 66.8353999,25.4272506 L66.8404489,25.4110567 C66.8717528,25.5669234 66.8990175,25.7248143 66.9293116,25.8827052 C67.010096,26.2784446 67.081792,26.6853173 67.1433901,27.1012991 C67.8462136,31.4028143 68.2895175,36.1091779 72.2620861,37.8085294 L66.1749881,37.7599476 C63.996841,43.7122325 59.2012822,48.4327658 53.6564489,52.2312567 C43.1918509,59.4001113 46.8604685,62.6075234 48.0459783,65.5973294 L37.3329685,64.8453234 L37.155243,62.2441719 L37.150194,62.2512567 C36.5433018,52.1826749 33.663341,48.6716264 28.4870861,42.7193416 C22.178841,35.4644567 18.095194,17.4355416 28.9687626,12.6502325" id="Fill-21" fill="#FF5E54"></path>
                    <path d="M50.0367941,49.7589152 C49.5167451,49.7589152 49.0037647,49.6637758 48.5220882,49.4664121 C47.3032549,48.9674364 46.5287353,47.9006606 46.4509804,46.6132424 L47.3648529,46.5575758 C47.421402,47.4988485 47.9697255,48.2498424 48.868451,48.6182545 C50.0468922,49.1000242 51.489902,48.7963879 52.5441373,47.8389212 L53.1570882,48.5190667 C52.2644216,49.3287636 51.1384902,49.7589152 50.0367941,49.7589152" id="Fill-27" fill="#222B24"></path>
                    <path d="M48.1676471,63.7636364 C63.6378431,94.2446788 57.2074118,152.939612 82.5211765,152.939612 L77.4590294,166.335036 C33.7587549,166.335036 39.6852941,171.783285 36.3529412,65.0206909 L48.1676471,63.7636364" id="Fill-28" fill="#04243D"></path>
                    <polygon id="Fill-29" fill="#04243D" points="36.3256765 61.3993212 45.4603627 63.8304364 47.2618529 60.7272727 49.6672059 63.5045333 48.569549 67.0155818 56.2248725 103.931691 44.3182745 68.6208061 35.3431373 65.7048848"></polygon>
                    <path d="M22.4375866,51.1392431 C6.18681211,34.9746552 9.69689054,-5.77638113 45.0592141,0.689049177 C64.5645866,4.24867948 64.6372925,17.8414674 70.8344592,15.3445643 C67.5404788,26.7714128 48.7126847,27.0365886 42.1721847,21.8757825 C40.4545082,23.3595522 39.2447631,25.4151704 38.3682533,27.8392007 C37.8512337,27.6964916 37.3099788,27.6134977 36.7444886,27.6479098 C33.9867141,27.8149098 31.8853121,30.1913704 32.0519298,32.9554734 C32.1993611,35.3936734 34.0614396,37.3136674 36.3900474,37.6203401 C38.1723513,54.6573764 35.5256552,69.8564007 18.0681651,64.8949825 C23.2615866,64.8868855 33.2283513,61.5519461 22.4375866,51.1392431" id="Fill-30" fill="#04243D"></path>
                    <path d="M36.8780392,66.8 C24.4826961,112.815079 20.965549,130.540358 0,156.002291 L2.66487255,159.541679 C29.4297255,132.686055 34.6534412,112.326224 41.5352549,82.0830303 C42.4238824,77.1438788 41.7261078,68.9355758 36.8780392,66.8" id="Fill-32" fill="#04243D"></path>
                    <ellipse id="Oval-2" fill="#093448" cx="60.5882353" cy="31.3757576" rx="2.01960784" ry="2.02424242"></ellipse>
                </g>
                <g id="Group-9" transform="translate(121.000000, 6.000000)">
                    <polyline id="Fill-138" fill="#FF5E54" points="23.6173037 12.4845926 8.3419194 32.6120741 18.0187474 31.9037284 14.9197445 58.1346543 59.0644163 56.3567469 47.6436435 2.01234568 24.8806813 2.67340123 23.6173037 12.4845926"></polyline>
                    <path d="M22.4778459,49.7401543 L22.446614,48.6736111 C27.4094516,48.5297284 33.7333922,45.5886852 36.2158184,40.2469136 L37.1850125,40.6956667 C34.5202327,46.4308519 27.7691213,49.587216 22.4778459,49.7401543" id="Fill-140" fill="#212B24"></path>
                    <path d="M45.1904342,18.2700864 C47.4582676,18.2046852 49.3503116,19.9866173 49.4157977,22.2515123 C49.4500519,23.4297407 48.9775447,24.4982963 48.2027939,25.2700309 L54.0189655,34.9896605 L48.754892,0 L14.3867885,0.998123457 L23.002742,12.329642 L40.1258413,10.5114877 L44.4257582,18.3696975 C44.6735978,18.3153642 44.9274823,18.2781358 45.1904342,18.2700864" id="Fill-141" fill="#04243D"></path>
                    <path d="M15.1416832,56.345679 C1.33419461,75.9680617 -4.99679833,128.971235 5.57668526,162.761537 L44.9761348,162.546216 C50.0508024,114.395815 51.9388165,93.1806605 59.0143359,56.5710617 L15.1416832,56.345679" id="Fill-142" fill="#12E1B7"></path>
                    <path d="M58.3396995,56.5650494 C97.6847452,104.938821 121.190219,134.400568 55.523798,134.676259 L55.523798,126.365272 C83.9598699,121.008407 96.2652085,122.058852 53.5128715,78.1545 C48.0724893,72.1909136 56.1534719,54.1602963 58.3396995,56.5650494" id="Fill-147" fill="#12E1B7"></path>
                    <ellipse id="Oval-2" fill="#093448" cx="27.484005" cy="19.117284" rx="2.01495638" ry="2.01234568"></ellipse>
                </g>
            </g>
        </g>
    </g>
</svg>